<?xml version="1.0" encoding="UTF-8" standalone="no"?>
<!-- Created with Inkscape (http://www.inkscape.org/) -->

<svg
   version="1.1"
   id="svg1"
   width="538"
   height="504"
   viewBox="0 0 538 504"
   xmlns="http://www.w3.org/2000/svg"
   xmlnsSvg="http://www.w3.org/2000/svg">
  <defs
     id="defs1" />
  <g
     id="g1"
     style="display:inline"
     transform="translate(10,7)">
    <path
       style="display:inline;opacity:0.753582;fill:rgba(var(--light));fill-opacity:1;stroke:rgba(var(--main),0.4);stroke-width:3.5;stroke-linecap:round;stroke-linejoin:round;stroke-miterlimit:3.4;stroke-dasharray:none;stroke-opacity:1;paint-order:markers fill stroke"
       d="m 266.89212,480.34206 5.1219,-5.30792 4.9356,-11.39312 1.34796,-8.40325 2.34288,-4.85612 2.79914,-1.41445 5.6247,-11.98819 6.52624,-1.25282 c 0,0 1.09553,1.04353 1.3155,2.43377 0.20215,1.27768 -1.41871,5.49932 -1.41871,5.49932 l -3.06825,4.54046 c 0,0 -1.28147,1.27768 -0.7464,1.54521 0.53507,0.26753 0.95282,0.49992 1.43438,-0.19567 0.48156,-0.69558 4.55077,-6.62074 4.55077,-6.62074 l 1.82081,-6.62027 2.38025,-4.53239 2.00998,-4.14914 c 0,0 1.02692,-0.96961 0.0103,-1.13013 -1.01662,-0.16052 -0.53664,-0.12917 -0.53664,-0.12917 l -1.95712,1.03879 c 0,0 -1.64081,-0.90424 -1.31977,-2.50944 0.32104,-1.6052 3.71124,-6.40432 3.71124,-6.40432 0,0 0.11351,-0.4351 -0.0378,-0.49185 -0.15134,-0.0568 -0.81345,-1.04046 -0.81345,-1.04046 l -0.98371,-1.00263 -1.55124,-0.18917 -2.28901,-0.30268 -2.57278,-0.68103 c 0,0 -1.07829,-0.81345 -1.13505,-1.15397 -0.0568,-0.34051 -0.73778,-2.02417 -0.85128,-2.062 -0.11351,-0.0378 -2.47819,-2.91329 -2.47819,-2.91329 l -2.68628,-2.45928 -2.49711,-1.55123 c 0,0 -2.00525,-1.04046 -2.04309,-1.36206 -0.0378,-0.3216 -4.2186,-2.15659 -4.2186,-2.15659 l -2.93221,-1.00263 -4.99421,-0.24592 -4.25643,-0.60536 -3.06463,-0.13243 c 0,0 -0.49186,0.56753 -1.0783,0.58645 -0.58644,0.0189 -1.57015,0.22701 -1.81608,0.0189 -0.24593,-0.20809 -0.35943,-0.49185 -0.35943,-0.49185 0,0 -0.30863,-5.6e-4 -0.70589,0.0751 -0.39726,0.0757 -1.38801,0.64779 -1.38801,0.64779 l -0.88453,0.90154 -1.38423,0.89886 c 0,0 -0.81804,0.63536 -0.53428,0.91912 0.28376,0.28376 -1.13774,0.32216 -1.13774,0.32216 0,0 -1.32422,0.0378 -1.39989,0.26484 -0.0757,0.22701 -0.85129,0.62428 -1.02154,0.56753 -0.17026,-0.0568 -1.9269,0.16645 -1.94582,0.31775 -0.0189,0.15134 -1.17288,0.66212 -1.17288,0.73779 0,0.0757 -0.94588,0.68102 -0.94588,0.68102 l -1.36206,0.85129 -2.09984,1.41881 -2.30793,1.58907 -4.76989,5.5277 -4.08617,5.94009 -2.34578,2.95113 -1.24855,1.36206 -1.66474,2.00525 -1.6269,1.85391 -2.49711,2.76196 -1.51339,1.43773 c 0,0 -0.37835,1.89175 -0.0378,2.00525 0.34052,0.1135 0.83237,0.68102 1.13505,0.56752 0.30268,-0.11351 0.6432,-0.30268 0.90805,-0.71886 0.26484,-0.41619 1.28638,-0.30268 1.74039,-0.0378 0.45402,0.26484 1.36206,0.79453 1.5134,0.90803 0.15134,0.11351 1.81609,1.24856 2.27011,1.74041 0.45402,0.49186 3.17813,2.64845 3.17813,2.64845 0,0 3.93483,2.72411 4.38885,2.83762 0.45402,0.1135 2.68628,1.47556 2.68628,1.47556 l 1.85392,0.6432 c 0,0 0.7567,0.45402 0.83237,0.79453 0.0757,0.34052 0.79457,1.28639 2.00525,3.25381 1.21072,1.96742 8.36153,6.05359 8.36153,6.05359 l 2.49711,1.47557 9.87493,8.70203 c 0.54978,0.0122 1.09641,1.29502 1.7404,1.77825 0,0 0.7567,1.17288 0.94587,1.43772 0.18918,0.26485 -0.71886,1.13505 -0.71886,1.13505 l -1.21072,1.43773 -1.32422,1.21072 c 0,0 -1.36206,1.28639 -1.32423,1.58907 0.0378,0.30268 -0.64319,1.17288 -0.52969,1.58907 0.11351,0.41618 0.22704,2.91329 0.22704,2.91329 l -0.0757,1.36205 c 0,0 0.0757,0.68103 0.49186,0.7567 0.41618,0.0757 1.5134,0.0757 1.5134,0.0757 z"
       id="path2" />
    <path
       style="display:inline;opacity:0.753582;fill:rgba(var(--light));fill-opacity:1;stroke:rgba(var(--main),0.4);stroke-width:3.5;stroke-linecap:round;stroke-linejoin:round;stroke-miterlimit:3.4;stroke-dasharray:none;stroke-opacity:1;paint-order:markers fill stroke"
       d="m 280.74076,458.60211 0.76241,-0.43566 0.70778,0.13107 0.20327,1.12587 -0.22163,0.6489 -1.07807,-0.096 -0.26675,-0.44216 z"
       id="path3" />
    <path
       style="opacity:0.753582;fill:rgba(var(--light));fill-opacity:1;stroke:rgba(var(--main),0.4);stroke-width:3.5;stroke-linecap:round;stroke-linejoin:round;stroke-miterlimit:3.4;stroke-dasharray:none;stroke-opacity:1;paint-order:markers fill stroke"
       d="m 285.15906,455.93989 0.95616,-1.77286 1.01427,-0.0719 1.29289,-1.24776 0.44325,0.82967 -0.14137,0.78267 -1.01695,0.63211 0.36806,1.72743 -2.0385,0.008 -0.68562,-0.27324 -0.43946,0.12839 -0.85722,0.27671 z"
       id="path4" />
    <path
       style="opacity:0.753582;fill:rgba(var(--light));fill-opacity:1;stroke:rgba(var(--main),0.4);stroke-width:3.5;stroke-linecap:round;stroke-linejoin:round;stroke-miterlimit:3.4;stroke-dasharray:none;stroke-opacity:1;paint-order:markers fill stroke"
       d="m 305.23654,419.74127 0.084,-1.70193 -0.45898,-0.90168 c 0,0 -0.99428,-1.41955 -1.39558,-1.7941 -0.4013,-0.37454 -1.58926,-0.67282 -2.01731,-0.75308 -0.42806,-0.0803 -2.02616,-0.83204 -2.50772,-0.83204 -0.48156,0 -2.51349,-0.0426 -2.51349,-0.0426 0,0 -0.71886,-1.1918 -0.62428,-1.26747 0.0946,-0.0757 -0.57698,-1.63636 -0.57698,-1.63636 l -2.3363,-2.61061 -2.46874,-2.42144 -2.36469,-1.92012 -1.76877,-0.62428 -1.06884,-0.67157 -1.80663,-1.75933 c -1.9548,-0.82606 -5.73132,-2.02357 -6.1198,-2.13767 l -2.95113,-0.69994 -2.62006,-0.30266 -3.44299,-0.009 -2.95112,-0.0189 -1.59853,0.16083 c 0,0 -0.78508,0.24593 -0.95533,0.26485 -0.17026,0.0189 -0.28376,0.72831 -0.28376,0.72831 l -0.27431,-0.83237 0.0284,-0.89858 -5e-5,-4.13346 0.0568,-3.69838 c 0,0 0.54706,-1.08843 1.21072,-1.04046 0.78508,0.0568 1.50394,0.14189 1.50394,0.14189 l 0.62428,0.53914 5.89279,0.57699 0.52023,0.67157 1.86338,0.37834 0.59589,0.6432 4.64425,0.2554 0.8702,0.58644 1.92012,0.31213 1.06884,0.75671 1.61745,0.15134 0.73777,0.71886 0.99317,0.2743 1.01209,-0.009 1.04046,-0.37838 1.41881,-0.75671 c 0,0 0.71887,-1.21072 0.56753,-1.57015 -0.15134,-0.35943 -0.56753,-1.82553 -0.35944,-1.97687 0.20809,-0.15134 -0.49185,-0.0946 0.68103,-0.39727 1.17289,-0.30268 3.42406,-1.12559 3.42406,-1.12559 l 4.32265,-1.60798 c 0,0 3.11193,-0.45402 3.32002,-0.37835 0.20809,0.0757 1.80662,-0.24594 2.65791,0.39726 0.85128,0.6432 1.10667,1.12559 1.10667,1.12559 0,0 0.74724,0.63373 0.97425,0.5959 0.22701,-0.0378 2.92274,0.11352 2.92274,0.11352 0,0 0.73778,-0.18918 0.85129,-0.3216 0.1135,-0.13242 2.47819,-1.74041 2.47819,-1.74041 0,0 0.49185,-0.72832 0.94587,-0.72832 0.45402,0 1.15397,-0.25543 1.15397,-0.25543 l 1.0783,0.18918 c 0,0 0.93646,-0.11351 0.91746,0.1135 -0.0189,0.22701 -0.43513,0.0473 -0.58644,0.10405 -0.15134,0.0568 -0.34998,0.30268 -0.34998,0.30268 0,0 -0.28376,0.62433 -0.20809,0.83237 0.0757,0.20809 0.34051,3.32002 0.34051,3.32002 l 0.73779,3.23489 -0.0757,2.44035 0.0946,2.68628 0.28377,3.48081 0.43515,3.27273 0.32155,2.62953 -0.39727,1.43773 c 0,0 -0.19863,0.65265 -0.42564,0.70941 -0.22701,0.0567 -0.28376,1.15391 -0.24593,1.38097 0.0378,0.22701 -0.34996,1.80662 -0.34996,1.80662 0,0 -0.36886,0.51077 -0.52023,0.83237 -0.12325,0.26184 -0.27431,0.75669 -0.27431,0.75669 l -0.14189,0.92696 c 0,0 -0.60535,0.86075 -0.81345,0.9175 -0.20809,0.0568 -1.34314,0.71887 -1.34314,0.71887 l -1.19179,0.7094 c 0,0 -0.69049,0.70941 -0.86075,0.74724 -0.17026,0.0378 -1.27693,0.34052 -1.33368,0.54861 -0.0568,0.20809 -1.53232,1.90121 -1.53232,1.90121 l -1.96742,1.99579 -0.57698,0.61481 c 0,0 -0.45402,0.87021 -0.68103,0.83238 -0.22701,-0.0378 -0.95533,0.0662 -0.95533,0.0662 l -1.85391,0.0662 -0.63374,-0.26485 0.69995,-1.10667 0.58644,-0.33105 0.34051,-0.81345 0.93639,-1.1918 z"
       id="path5" />
    <path
       style="opacity:0.753582;fill:rgba(var(--light));fill-opacity:1;stroke:rgba(var(--main),0.4);stroke-width:3.5;stroke-linecap:round;stroke-linejoin:round;stroke-miterlimit:3.4;stroke-dasharray:none;stroke-opacity:1;paint-order:markers fill stroke"
       d="m 318.34333,381.79256 0.81346,-1.835 0.36592,-1.46677 1.04371,-2.02646 0.43986,-0.57064 0.60536,-0.27134 0.7563,-0.14176 -0.5813,-0.49836 -1.09872,-1.06777 c 0,0 -1.92191,-2.36564 -2.37593,-2.59265 -0.45402,-0.22701 -1.66474,-0.79643 -2.64845,-0.94777 -0.98371,-0.15134 -1.25504,-1.14273 -1.93607,-1.21839 -0.68103,-0.0757 -2.53842,0.0226 -2.53842,0.0226 l -0.74372,-1.05178 -0.86062,-2.98254 -0.48996,-1.26757 -0.50024,-2.4436 -0.82319,-1.98918 -0.32216,-1.2818 -0.49415,-0.39442 -0.17088,-7.13323 -1.07885,-1.07006 -2.08545,-2.01286 -0.54267,0.33323 -1.34146,0.38026 -6.27149,-0.0138 -1.16444,-1.14842 -3.28017,-1.73353 -2.33888,-0.91951 -4.50236,-1.21072 -2.30792,-0.1135 -0.90805,-0.34052 -0.68102,-0.49182 -1.55124,0.15131 -0.64319,0.60536 -1.24856,-0.18917 -3.17813,0.227 -2.23226,-0.0378 -0.83237,0.90803 h -0.83237 l -1.77825,0.56753 -2.3836,0.30268 -1.36206,1.24855 -0.79453,1.36206 -1.70257,2.91329 -1.09722,1.77824 -0.90804,1.92959 -0.68103,2.15659 -0.75669,2.19443 -0.83237,1.81608 -0.98371,0.49185 -0.56753,0.68103 0.45402,0.94588 -0.0757,1.58907 v 0.90803 l -0.49185,1.36206 -0.56753,1.85392 0.0378,0.7567 -0.68103,1.70257 -0.45402,1.05938 -0.0757,1.32422 -0.68103,2.53494 -0.83237,2.11876 -0.37835,0.79454 0.26484,0.34051 0.7567,0.1135 1.05938,0.11351 c 0,0 0.60536,-0.22701 0.8702,-0.30268 0.26485,-0.0757 0.90804,-0.49186 0.90804,-0.49186 l 1.17289,-0.49185 1.02155,0.0756 0.9837,0.60536 0.37835,0.68103 0.49186,0.94587 1.21072,2.68628 0.77561,1.09722 0.0189,1.05938 0.34051,0.8702 0.49186,0.49186 1.81608,0.79453 3.72674,0.17026 2.78087,0.77562 1.91066,0.1135 1.0783,0.87021 2.98896,0.90804 h 1.66474 l 2.02417,0.24592 2.34577,0.94588 2.42144,0.90804 1.79716,0.20806 0.71886,-0.83237 -0.45402,-1.15397 v -1.34314 l 0.0757,-0.8702 1.17288,-0.37835 4.61587,-1.68366 3.15922,-1.02154 2.85654,-0.56753 2.13768,-0.58644 1.24855,0.0568 1.17288,0.22701 1.09722,0.64319 1.39989,0.77563 0.49185,0.73777 0.30268,0.56753 0.88912,0.15131 1.17289,-0.60536 0.52969,-0.8702 1.17288,-0.49186 0.6432,-0.56752 0.56752,-0.49186 0.60536,-0.0378 1.87283,0.15137 1.45665,-0.0757 1.11612,-0.0378 z"
       id="path6" />
    <path
       style="opacity:0.753582;fill:rgba(var(--light));fill-opacity:1;stroke:rgba(var(--main),0.4);stroke-width:3.5;stroke-linecap:round;stroke-linejoin:round;stroke-miterlimit:3.4;stroke-dasharray:none;stroke-opacity:1;paint-order:markers fill stroke"
       d="m 324.5182,374.73424 0.64208,-0.8026 1.05675,-1.17714 1.04339,-1.01663 2.79572,-2.31417 2.15365,-1.71221 1.04338,-0.0936 1.21727,-1.08351 1.65871,-1.67208 3.09001,-2.68872 2.23391,-1.68546 1.97975,-0.92299 2.07338,-0.88286 1.91287,-0.93637 3.00975,-0.13376 0.82935,-0.72234 1.28417,-0.29429 2.54156,-1.00325 3.10339,-1.61858 2.31417,-0.54844 0.36117,-2.99638 0.5752,-0.82935 1.32429,-1.83261 0.76247,-0.25416 c 0,0 0.53506,-0.72234 0.65545,-0.73571 0.1204,-0.0134 3.43781,0.0134 3.43781,0.0134 l 0.77585,-1.27078 h 0.20065 l -0.0803,-0.18727 -4.28054,-0.14715 -0.56182,-0.89623 -0.56182,-0.20065 -0.69559,-1.20391 -1.35104,0.18728 -1.72559,0.29428 -2.26066,1.35105 -1.48481,0.72234 -1.44468,1.07013 -2.08676,0.89624 -1.81923,0.56182 -0.82936,0.21403 -2.30079,0.0936 -2.11351,-0.18728 -1.13702,-1.73897 -1.89949,-2.18039 -1.17714,-2.34092 -0.13377,-1.61858 0.13377,-2.99638 0.10701,-2.10014 0.64208,-0.76247 0.28091,-1.24403 1.05676,-1.8326 -0.18728,-1.11027 -1.47143,-0.18727 -0.60195,-0.5752 -2.68871,-0.20065 -1.23066,-1.8326 -0.88286,-1.84598 -0.90961,-1.71222 -0.30767,-2.11351 0.24078,-0.72234 0.86949,-0.5752 -0.12039,-2.08676 -0.44143,-1.16377 -0.4013,-1.91287 -0.26754,-1.21728 -0.89623,-1.03 -0.61533,-0.52169 -4.02638,-0.10701 -0.89624,0.37454 -1.25741,0.46819 -2.16702,0.0803 -1.41792,0.0267 -0.81598,0.58857 -3.41106,0.52169 -1.53831,-0.0803 -1.05676,0.73572 -1.89949,0.29429 -1.00325,-0.18727 -1.35104,-1.49819 -1.84599,-0.77585 -1.57844,-0.93637 -0.33442,-0.46818 -2.39443,-0.4013 -0.93636,-0.65546 -2.56833,-0.33442 -1.81922,-0.12039 -1.99313,-0.60195 -1.09689,0.0936 -1.23065,1.04338 -1.64533,1.27079 -1.1504,0.50831 -0.56182,2.03325 -0.81597,0.88287 -1.87274,0.16052 -1.16377,0.96312 -1.3778,1.48481 -1.19052,1.04338 -0.54845,1.67208 -0.4548,0.58858 -0.5752,2.72884 -0.45481,0.32104 -0.42805,1.89949 -0.52169,0.42805 -0.38792,2.08676 -0.72234,1.05676 -0.94975,1.92624 -1.81923,2.59508 -0.82935,1.13701 -1.3778,1.39118 -0.88286,1.53832 -1.53832,1.07013 -1.33767,0.88286 -1.37779,0.32104 -1.17715,0.88286 -0.42805,0.16052 0.8026,0.1739 1.75234,-0.2274 1.03001,-0.37455 1.69883,-0.20065 2.14027,-0.25416 2.55495,-0.0401 2.20715,0.24078 1.12364,0.45481 0.6287,0.2274 2.62183,0.26754 1.07014,0.32104 1.32429,0.58857 0.60195,0.24078 1.89949,0.53507 1.45805,0.92299 1.53832,0.50831 0.37455,0.5752 2.08676,1.12364 1.51157,0.0535 1.80585,-0.0936 0.84273,-0.72234 1.31091,-0.24078 1.47144,0.26753 0.84273,0.82936 1.12364,0.70896 0.74909,0.56182 0.84273,0.68221 0.26754,0.65546 v 1.47143 l 0.0134,1.35105 0.0401,2.59507 0.24078,0.96312 0.20065,0.21403 0.44143,1.96637 0.30767,1.01663 0.44143,0.36117 0.28091,2.60845 0.56182,1.08351 0.98987,2.86261 0.48156,1.73897 2.5817,0.12039 1.57845,0.72234 2.07338,0.58858 1.65871,1.07013 1.09689,1.27078 1.09689,1.3778 0.81598,0.7491 0.74909,1.01662 z"
       id="path7" />
    <path
       style="opacity:0.753582;fill:rgba(var(--light));fill-opacity:1;stroke:rgba(var(--main),0.4);stroke-width:3.5;stroke-linecap:round;stroke-linejoin:round;stroke-miterlimit:3.4;stroke-dasharray:none;stroke-opacity:1;paint-order:markers fill stroke"
       d="m 369.89346,347.60867 2.08092,0.11351 3.21598,0.1135 0.94587,0.22701 0.90804,0.49186 2.61061,0.24592 h 13.12873 l 0.89201,-0.21763 0.76247,-1.81923 -0.60195,-1.51156 0.0267,-1.29754 0.54845,-0.36117 0.6287,-0.68221 2.20715,-1.25741 1.00325,-0.89624 1.29754,-0.2274 1.32429,-0.61533 c 0,0 1.64533,-0.20065 1.72559,-0.24078 0.0803,-0.0401 1.48481,-0.84273 1.48481,-0.84273 l 1.51157,-0.26753 0.0134,-3.50469 -0.90962,-1.47144 0.44143,-1.08351 0.44143,-0.34779 0.0936,-0.77585 -1.35105,-0.52169 -0.65545,-0.49494 -2.31417,-0.28091 -0.81598,-0.66883 -1.28416,-0.20065 -1.52494,-1.15039 v -0.60195 l -0.0936,-2.5817 -0.0803,-0.0401 -0.25416,0.2274 -0.33442,0.41468 -1.29754,1.12364 -0.50831,0.61532 -0.37455,0.80261 -0.48156,0.52169 -0.21402,0.56182 -0.22741,0.54844 -0.36117,0.41468 -0.16052,0.34779 -0.33442,1.23066 -0.54844,0.58857 -0.26753,0.86948 c 0,0 0.13376,0.48156 0.13376,0.53507 0,0.0535 -0.0401,0.74909 -0.0401,0.74909 l -0.17389,0.8026 -0.64208,0.68222 -0.98988,0.77584 -0.69558,0.28091 c 0,0 -1.07014,0.3478 -1.12365,0.37455 -0.0535,0.0267 -1.81922,0.30766 -1.81922,0.30766 0,0 -0.44143,0.53507 -0.64208,0.61533 -0.20065,0.0803 -1.63196,0.33442 -1.63196,0.33442 l -1.17715,0.68221 -4.96274,0.0803 -4.1869,0.0669 -0.53507,0.25416 -0.60195,0.30766 -3.10339,0.50832 -2.22053,0.8026 -1.52494,0.18727 -1.16377,0.6287 -0.64208,0.24078 0.0134,0.30767 0.37454,0.44143 0.44143,0.56182 0.42806,0.0803 2.10013,0.0134 2.11352,0.0669 0.18727,0.42805 c 0,0 0.20065,0.52169 0.20065,0.5752 0,0.0535 0,0.76247 0,0.76247 l -0.0803,1.28416 -0.2274,0.52169 -0.48156,0.16052 -0.32104,0.0535 z"
       id="path8" />
    <path
       style="opacity:0.753582;fill:rgba(var(--light));fill-opacity:1;stroke:rgba(var(--main),0.4);stroke-width:3.5;stroke-linecap:round;stroke-linejoin:round;stroke-miterlimit:3.4;stroke-dasharray:none;stroke-opacity:1;paint-order:markers fill stroke"
       d="m 246.56569,358.75106 1.03573,0.0279 0.3216,-0.86074 c 0,0 0.41618,-0.24593 0.46348,-0.24593 0.0473,0 0.52023,-0.19863 0.52023,-0.19863 0,0 0.81345,-0.56753 0.87966,-0.5959 0.0662,-0.0284 2.04309,-0.17026 2.04309,-0.17026 l 1.25801,0.13242 0.9175,0.82291 0.48239,0.4824 0.56753,0.45402 0.4351,0.22701 0.37835,0.0189 0.66211,-0.17971 0.15134,-0.15134 0.23647,-2.21335 c 0,0 0.23647,-0.52969 0.35943,-0.58644 0.12296,-0.0568 0.34052,-0.18917 0.34052,-0.18917 l 0.0757,-0.27431 0.16079,-1.74986 0.3216,-0.61482 0.40673,-0.34997 0.18917,-0.77562 0.26485,-0.6432 0.35943,-0.24592 0.18917,-0.0946 0.37835,-0.86075 0.29322,-0.32159 0.28377,-0.15134 c 0,0 0.18917,-0.29322 0.19863,-0.34052 0.009,-0.0473 0.22701,-0.93641 0.22701,-0.93641 0,0 0.3216,-0.17972 0.37835,-0.22701 0.0568,-0.0473 0.29322,-0.27431 0.29322,-0.27431 l 0.14188,-0.46347 0.29322,-0.61482 0.4351,-0.39727 0.11351,-0.21755 0.31214,-0.96479 c 0,0 0.0757,-0.10405 0.21755,-0.18918 0.14188,-0.0851 0.7094,-0.24592 0.7094,-0.24592 l 0.2081,-0.44456 0.82291,-0.50132 0.41618,-0.1608 0.68103,-0.65265 0.42564,-0.0473 0.4824,-0.24593 0.19863,-0.35943 0.52969,-0.30268 1.76879,-1.32423 1.55123,-1.21071 0.82291,-0.61482 1.93904,-0.97425 1.74987,-1.17289 0.99317,-1.60798 c 0,0 1.98633,-2.24172 2.02417,-2.29848 0.0378,-0.0568 1.00262,-1.36205 1.00262,-1.36205 0,0 0.76616,-1.64582 0.90804,-1.98634 0.14188,-0.34051 0.76616,-1.74041 0.76616,-1.74041 l 1.12559,-3.16867 0.97425,-2.5917 1.031,-2.98896 1.28639,-2.01471 1.71203,-1.74987 1.33368,-0.37835 0.52024,-0.86074 1.35259,-0.13243 1.09722,-0.85128 0.22701,-1.69312 c 0,0 -0.0946,-1.89174 -0.0946,-1.93904 0,-0.0473 0.14188,-2.32685 0.14188,-2.32685 l 0.34052,-1.33368 -0.36889,-1.17288 -1.04992,-0.95534 -1.76879,-0.99316 -1.87283,-0.9175 -2.34577,-1.04992 c 0,0 -2.27955,-0.95534 -2.34576,-0.96479 -0.0662,-0.009 -2.7052,-1.0783 -2.7052,-1.0783 l -2.1093,-0.9175 -2.97005,-1.13505 -3.37677,-0.17971 c 0,0 -0.45402,-0.69995 -0.93641,-0.85129 -0.4824,-0.15134 -1.16343,-1.20126 -1.16343,-1.20126 l -0.4351,-1.20126 -0.0662,-2.99842 -0.18917,-1.13505 -0.87021,-0.64319 -0.46348,-0.0473 c 0,0 -1.3526,0.18918 -1.40935,0.18918 -0.0568,0 -3.70782,-0.0189 -3.70782,-0.0189 l -0.9175,-0.2743 -0.57699,-0.55807 -1.39043,-0.33105 -0.84183,-0.58645 -0.93641,-0.25538 -0.47294,-0.26485 -0.33106,-0.62427 -1.23909,-0.4824 -0.50131,-0.55806 -0.68103,-0.14189 -0.54861,-0.36889 -0.1608,-0.34997 -0.74724,-0.12296 -2.58223,-0.0378 -5.86442,-0.0473 -2.45928,-0.0568 -0.61481,-0.0851 -0.33106,-0.34052 -0.22701,-0.34051 -0.30268,-0.14188 -0.3216,-0.23647 -0.17025,-0.22701 -0.23647,-0.47294 -1.5134,-0.3216 -0.25539,-0.41618 -0.24592,-0.3216 -1.92013,-0.93641 c 0,0 -0.86074,-0.20809 -1.04992,-0.4824 -0.18917,-0.2743 -0.30268,-0.47294 -0.38781,-0.50131 -0.0851,-0.0284 -2.07146,-0.0567 -2.07146,-0.0567 l -0.44456,0.48239 -1.20126,0.38781 c 0,0 -2.3836,0.0757 -2.63899,0.0757 -0.25538,0 -1.11613,-0.0189 -1.11613,-0.0189 l -0.47294,0.14188 -0.26484,0.56753 -0.4351,0.17971 -0.31214,0.58645 c 0,0 -0.22701,1.37151 -0.23647,1.40935 -0.009,0.0378 -0.74724,1.20126 -0.74724,1.20126 l -0.37835,0.65265 -0.69995,0.41619 -0.0284,0.58644 c 0,0 -0.52023,0.19863 -0.55807,0.23647 -0.0378,0.0378 -1.031,0.20809 -1.031,0.20809 l -0.45402,0.15134 c 0,0 -0.31214,0.41618 -0.39727,0.45402 -0.0851,0.0378 -2.062,0.28376 -2.062,0.28376 l -2.07147,-0.0851 -0.31214,-0.20809 -0.21755,0.47294 0.25539,0.66211 0.0851,0.94587 0.49185,0.60536 0.35943,0.5959 0.0378,1.21072 -0.12296,1.09721 -0.12297,1.05938 -0.19863,0.57699 -0.18918,0.47293 -0.12296,0.18918 -0.22701,1.26747 -0.20809,1.40935 -0.4824,0.71886 -0.26484,0.76616 -0.10405,1.08776 -0.18917,1.22963 -0.49186,0.68103 -0.18917,0.56753 -0.25539,1.59852 c 0,0 -0.51077,0.37835 -0.5959,0.55807 -0.0851,0.17972 -0.67157,1.88229 -0.67157,1.88229 0,0 -0.55806,1.3526 -0.62428,1.55123 -0.0662,0.19864 -0.46347,0.95533 -0.46347,0.95533 l -0.35944,0.34998 -0.0851,0.52023 -0.0142,1.52286 -0.0946,1.04519 0.0804,1.05938 0.15607,0.87966 0.41618,0.21755 0.14661,0.24593 0.22701,0.52969 0.0851,0.79453 0.0709,0.21755 0.4824,0.2743 0.18444,0.26012 0.16553,0.56279 0.22228,0.86548 0.14188,0.17499 0.27904,0.1135 c 0,0 0.17498,0.23174 0.18444,0.25066 0.009,0.0189 0.11824,0.33578 0.11824,0.33578 l 0.0331,0.68576 v 0.54861 l 0.14188,0.46821 0.0284,0.30741 0.0378,0.2743 0.10405,0.18444 0.10877,0.10878 0.31687,0.26484 0.1277,0.42565 0.1135,0.5155 0.0709,0.3547 -0.0757,0.86548 -0.0189,0.30268 0.0946,0.37835 0.0237,0.50604 -0.0142,0.36416 c 0,0 -0.0378,0.6763 -0.009,0.77089 0.0284,0.0946 0.0615,0.34051 0.0615,0.42564 0,0.0851 -0.0662,0.7898 -0.0662,0.7898 l -0.0804,0.55334 -0.43037,1.06884 -0.26485,0.2743 c 0,0 -0.13242,0.4824 -0.14661,0.54861 -0.0142,0.0662 -0.16079,0.47767 -0.16079,0.47767 l -0.61482,0.38307 -0.19391,0.17026 -0.0946,0.55807 -0.0899,0.50604 0.0567,0.70941 0.0899,0.31686 -0.0426,1.18707 c 0,0 0.0142,0.8371 0.0142,0.85602 0,0.0189 -0.052,0.51077 -0.052,0.51077 l -0.0331,0.48713 0.0804,0.71886 -0.005,0.18445 0.19391,0.27903 1.33841,0.0189 0.79926,-0.0426 1.46611,-0.0189 1.02627,0.0709 0.68576,0.18444 0.3216,0.37362 0.21282,0.18918 0.5486,0.10877 1.39044,0.0189 1.55123,0.0189 c 0,0 1.61745,0.17025 1.64109,0.17025 0.0237,0 0.61009,0.17972 0.61009,0.17972 l 0.29795,0.28376 0.52496,-0.34524 0.57226,-0.17972 2.0289,-0.1135 1.07829,-0.005 1.76879,0.0331 1.93904,0.0378 c 0,0 1.41881,0.0851 1.44246,0.0851 0.0236,0 1.31003,0.0757 1.31003,0.0757 l 0.80399,0.13715 0.31687,0.26011 0.2412,0.29323 1.10667,0.24119 0.69522,0.77562 0.10878,0.47294 0.20809,0.62427 0.81345,0.98844 -0.0237,0.70468 c 0,0 -0.0142,1.09248 -0.0142,1.12086 0,0.0284 -0.009,0.96479 -0.009,0.96479 l 0.005,1.07357 0.14661,0.65265 0.17971,0.3547 0.4351,0.9175 0.18445,1.16815 0.0189,0.74725 0.11823,1.22017 0.13242,0.61955 0.10405,0.27903 c 0,0 0.38781,0.60536 0.39727,0.62901 0.009,0.0236 0.20809,0.72832 0.20809,0.72832 v 0.42092 l 0.17499,2.46873 0.10404,0.51077 0.3216,0.45402 0.40199,1.28639 0.17499,0.71413 c 0,0 0.19391,0.0851 0.22701,0.0946 0.0331,0.009 0.65265,0.25538 0.65265,0.25538 0,0 0.20337,0.14662 0.22228,0.14662 0.0189,0 0.9979,0.0142 0.9979,0.0142 l 0.22701,-0.22701 0.50131,-0.12769 0.13243,-0.0757 z"
       id="path9" />
    <path
       style="opacity:0.753582;fill:rgba(var(--light));fill-opacity:1;stroke:rgba(var(--main),0.4);stroke-width:3.5;stroke-linecap:round;stroke-linejoin:round;stroke-miterlimit:3.4;stroke-dasharray:none;stroke-opacity:1;paint-order:markers fill stroke"
       d="m 215.1371,285.52518 0.22072,-0.0134 0.14045,-0.13376 v -0.18059 l 0.0803,0.20734 0.12708,0.087 0.1739,0.007 -0.16052,0.0669 -0.12039,0.0936 -0.0201,0.14714 -0.0869,-0.0669 -0.12039,-0.12039 -0.18728,-0.0669 z"
       id="path10" />
    <path
       style="opacity:0.753582;fill:rgba(var(--light));fill-opacity:1;stroke:rgba(var(--main),0.4);stroke-width:3.5;stroke-linecap:round;stroke-linejoin:round;stroke-miterlimit:3.4;stroke-dasharray:none;stroke-opacity:1;paint-order:markers fill stroke"
       d="m 218.47459,284.22096 0.78253,-0.34111 1.16377,-0.13377 1.06345,-0.0468 0.36117,-0.17389 0.32773,-0.96981 0.30766,-0.28091 0.5752,-1.37111 0.32773,-0.24747 c 0,0 0.1672,-0.0736 0.17389,-0.10032 0.007,-0.0268 0.38793,-1.41124 0.38793,-1.41124 l 0.54844,-0.33442 0.36786,-0.72903 0.2274,-0.24078 0.68221,-0.1739 1.29754,-0.1137 0.63539,-0.3411 0.75579,-0.32773 1.44468,-0.1137 1.29028,-0.05 1.1918,0.0189 h 1.40935 l 1.04992,0.0236 0.55334,0.11351 0.45875,0.20809 0.22701,0.31687 c 0,0 0.0709,0.17026 0.0993,0.17026 0.0284,0 0.73778,0.21282 0.73778,0.21282 l 0.39727,0.17971 0.42091,0.46821 0.19391,0.11351 1.04519,0.33578 0.3216,0.27903 0.14188,0.29795 0.10877,0.10878 0.85602,0.15134 0.50131,0.12769 0.26958,0.33579 0.24119,0.44929 0.14661,0.13715 0.68103,0.17499 0.57226,0.27903 0.28376,0.28849 c 0,0 0.0567,0.0662 0.55807,0.14661 0.50131,0.0804 1.13977,0.0662 1.13977,0.0662 l 0.83237,-0.0142 8.16762,0.005 0.80873,0.27904 0.3878,0.29795 0.0899,0.22701 0.97425,0.39253 0.21755,0.10405 0.33579,0.40673 0.65738,0.25538 0.87494,0.39254 0.13715,0.34051 0.20336,0.18445 0.15134,0.0899 0.87966,0.0804 0.33579,0.1135 0.39726,0.33106 0.11824,0.31214 0.11823,0.0899 1.79716,0.33579 0.60063,0.34524 0.21755,0.22228 c 0,0 0.22228,0.13716 0.32633,0.17499 0.10405,0.0378 1.13505,-0.18917 1.13505,-0.18917 l 0.22228,-0.19391 1.11613,-0.38308 1.62218,-0.22228 0.1135,-0.14661 -0.0662,-0.27903 -0.10405,-0.0709 -0.37835,-0.33579 -0.30741,-1.33841 -0.10877,-1.17288 -0.17026,-0.25539 -0.53442,-0.48239 -0.23647,-0.84183 0.0237,-1.66474 0.23647,-1.1114 0.15134,-0.2412 0.36889,-0.25538 c 0,0 0.28849,-1.44719 0.30268,-1.47557 0.0142,-0.0284 0.33578,-0.76616 0.33578,-0.76616 l 0.30268,-0.23174 0.17972,-0.19863 0.10405,-0.38781 0.0946,-1.10194 0.17026,-0.57225 0.38781,-0.43984 0.12769,-0.0804 0.6432,-1.13505 0.34524,-0.2081 0.40673,-0.78034 0.32159,-0.26958 0.28377,-0.0993 0.44929,-0.87494 0.2743,-0.22228 0.27903,-0.12296 0.64793,-1.39989 0.35943,-0.2412 0.31687,-0.55807 0.17025,-0.34997 0.52496,-0.2743 0.19864,-0.26958 0.22228,-0.55806 0.25538,-0.27904 0.27904,-0.0615 0.33578,-0.84655 0.28849,-0.46348 0.32633,-0.28849 0.45875,-0.804 0.25065,-0.30268 0.37835,-0.13715 0.31214,-0.44456 0.0993,-0.402 0.29322,-0.25538 0.20809,-0.0473 c 0,0 0.18918,-0.22701 0.19391,-0.26011 0.005,-0.0331 0.26957,-0.43983 0.26957,-0.43983 l 0.49186,-0.17026 0.5959,-0.009 2.62953,-0.009 0.31686,-0.15607 0.18445,-0.32159 0.32633,-0.21283 0.18444,-0.23173 0.14661,-0.50605 0.0236,-0.45875 0.18444,-0.55806 0.32633,-0.39254 0.19863,-0.15134 0.0993,-0.23174 -0.12296,-0.51077 -0.23174,-0.34051 v -0.15134 l 0.21755,-0.15134 0.34997,-0.70941 0.4824,-0.52496 0.24592,-0.14188 0.18445,-0.31214 0.0237,-1.48029 0.17498,-0.71414 c 0,0 0.12297,-0.28376 0.18918,-0.31686 0.0662,-0.0331 0.38308,-0.1608 0.41618,-0.18445 0.0331,-0.0237 0.44456,-0.26484 0.52969,-0.29795 0.0851,-0.0331 0.38781,-0.35943 0.38781,-0.35943 0,0 0.46821,-0.38781 0.49658,-0.38781 0.0284,0 0.71887,-0.12296 0.71887,-0.12296 l 0.7094,-0.0378 0.88913,-0.0284 0.36416,-0.0473 0.30741,-0.12296 0.17025,-0.29322 0.3216,-0.24593 0.0993,-0.0615 0.21755,-0.41619 0.13715,-0.87966 0.30268,-0.39254 0.28849,-0.21755 0.24593,-0.42091 0.0757,-1.03101 0.1608,-0.50131 0.41145,-0.36416 0.22228,-0.1135 0.13242,-1.16816 0.0237,-1.28166 0.0662,-1.44719 0.22701,-0.81818 0.17026,-0.49185 0.2412,-0.24593 0.19863,-0.84656 0.0993,-1.47556 0.13715,-1.44246 c 0,0 0.3547,-0.72832 0.37835,-0.74724 0.0236,-0.0189 0.22701,-0.15607 0.22701,-0.15607 l 0.56752,-1.42827 0.39727,-0.25065 0.17972,-0.14661 0.11823,-0.34998 c 0,0 0.4351,-1.17761 0.44929,-1.19653 0.0142,-0.0189 0.26958,-0.15134 0.29795,-0.17025 0.0284,-0.0189 0.30268,-0.54388 0.31214,-0.57226 0.009,-0.0284 0.1608,-0.49658 0.1608,-0.49658 l 0.36889,-0.24593 0.20809,-0.0662 0.19863,-1.34787 0.17026,-1.66474 0.17026,-0.39727 0.40673,-0.31213 0.13715,-0.30741 -0.42092,-0.2412 -0.32159,-0.12296 -0.13243,-0.36417 -0.1939,-0.4682 -0.27903,-0.1608 -0.30268,-0.17499 -0.22228,-0.55806 -0.0426,-1.26748 -0.009,-1.80188 -0.18917,-2.36469 -0.41146,-1.46138 -0.0236,-0.80872 -0.21755,-1.84445 -0.0899,-2.40252 -0.0899,-3.00315 c 0,0 0.0804,-0.9506 0.0899,-0.9979 0.009,-0.0473 -0.0757,-0.90804 -0.0757,-0.90804 l 0.29322,-1.72622 c 0,0 0.45875,-0.80399 0.48239,-0.83237 0.0236,-0.0284 0.22701,-1.07356 0.22701,-1.07356 0,0 0.24593,-1.92959 0.25539,-1.96269 0.009,-0.0331 0.40673,-0.78035 0.40673,-0.78035 l 0.23646,-0.30741 0.0993,-0.46347 -0.0567,-1.28166 0.1939,-1.21545 0.19391,-0.85602 0.50131,-0.43983 0.20336,-1.79716 0.32633,-1.1918 0.65738,-0.99317 c 0,0 0.26958,-0.51077 0.32633,-0.56752 0.0567,-0.0568 0.48712,-0.27431 0.54388,-0.37835 0.0567,-0.10405 0.27903,-0.65266 0.27903,-0.65266 l 0.13242,-0.52968 -0.52496,-0.2412 -0.52496,0.0142 -4.26589,-0.26012 -2.1897,-0.58644 -1.25328,-0.21755 -6.11508,-0.009 -3.60378,-0.31214 -1.39043,-0.57698 -6.72516,0.0378 -7.86936,-0.33384 -1.64533,-0.64208 -3.51806,-0.10701 -14.08565,-0.10702 -3.77222,-0.33441 -3.37092,-0.45481 -7.41068,-0.14714 c 0,0 -2.28741,-0.93637 -2.36767,-0.93637 -0.0803,0 -3.82573,-0.13377 -3.82573,-0.13377 l -10.82174,-6.20678 -1.23065,-1.79247 -1.75234,-2.38105 -0.18728,-4.29391 -1.2039,-2.3543 -0.89624,-2.10014 -2.92949,-5.65833 -0.37455,0.65546 v 1.47143 l -0.77584,1.5517 -0.24078,2.16702 0.10701,0.77584 -0.20065,3.81236 -0.66883,1.04338 -0.49494,2.86261 -0.48156,0.44143 -0.20065,1.03 -1.16377,0.9765 -4.17353,0.41468 -3.73209,0.17389 c 0,0 -0.42805,0.26754 -0.53507,0.26754 -0.10701,0 -26.35205,0.16052 -26.35205,0.16052 l -0.16052,0.37454 0.0267,0.37455 0.37455,0.29429 0.21403,0.18727 -0.0803,0.18727 -0.16052,0.16052 -0.16052,0.32104 -0.0803,1.09689 -0.0803,1.71222 -0.0803,0.66883 -0.3478,0.53507 -0.10701,0.24078 -0.18727,0.90961 v 0.8026 l -0.18728,0.8026 0.0803,0.88286 v 0.82936 1.25741 1.17714 l -0.10701,0.61533 0.0803,0.66883 0.16052,0.69559 0.37455,0.56182 0.37454,0.7491 0.0535,1.01662 0.26753,1.12364 -0.16052,0.72235 -0.0803,1.73896 0.0535,1.49819 0.10701,0.66884 -0.0535,1.23065 0.0268,0.85611 0.0267,0.56182 c 0,0 0.69559,0.24078 0.90962,0.21402 0.21402,-0.0267 1.01662,0.0535 1.01662,0.0535 0,0 0.32104,-0.0267 0.72235,-0.0267 0.4013,0 1.79247,-0.0268 1.79247,-0.0268 h 2.06001 l 2.08676,-0.0535 c 0,0 1.63195,0.0803 1.73897,0.0803 0.10701,0 1.28416,-0.0803 1.41793,-0.0803 0.13376,0 0.98987,-0.0268 0.98987,-0.0268 l 0.88286,0.0803 0.82935,0.13377 0.69559,0.48156 0.37455,0.0535 c 0,0 0.90961,0.13376 1.04338,0.13376 0.13377,0 0.56182,0.0535 0.56182,0.0535 l 0.42805,0.21403 0.32104,0.48156 0.61533,0.93637 0.48156,0.88286 -0.16052,1.23065 0.3478,0.66884 0.50831,0.96312 0.32104,1.09688 v 0.7491 l -0.0803,1.07013 0.0803,1.5517 0.24078,1.15039 0.4013,2.08676 0.24078,1.52494 -0.0803,2.56833 -0.0803,0.98987 -0.61533,0.53507 -0.42805,2.19377 -1.17715,1.953 -2.99637,4.22703 -1.44469,2.27403 -1.6587,1.39118 -0.42806,0.21402 -0.37454,0.61533 -0.8026,0.16052 0.24078,0.26753 0.93636,0.18728 1.52494,0.90961 0.7491,0.85611 0.58857,1.31091 0.0268,0.96312 0.10701,4.60158 0.24078,1.33767 0.34779,0.88286 0.32104,2.24728 -0.0535,2.32754 0.50831,1.76572 0.64208,1.09689 0.16052,4.28054 0.48156,1.6052 0.29429,3.1569 -0.0535,2.32754 c 0,0 0.90961,0.29429 1.5517,0.29429 0.64208,0 3.04988,0.0268 3.04988,0.0268 l 1.81923,0.66883 c 0,0 0.15614,0.35106 1.09688,0.29429 0.93637,-0.0565 11.69623,-0.40464 11.69623,0.0444 l 0.8338,0.60384 0.63262,0.9569 0.32104,0.98987 0.10836,1.05433 -0.10836,0.47062 -0.58857,0.34779 -0.37455,0.10701 -0.0535,0.88286 0.16052,1.36442 0.13376,1.04339 0.48156,0.88286 0.3478,1.81922 c 0,0 1.12364,0.72235 1.33767,0.85611 0.21402,0.13377 1.92624,1.36442 1.92624,1.36442 l 1.6052,1.1504 1.49819,0.37454 1.33766,1.01663 1.36443,1.09689 0.96312,0.90961 0.56182,0.13377 z"
       id="path11" />
    <path
       style="opacity:0.753582;fill:rgba(var(--light));fill-opacity:1;stroke:rgba(var(--main),0.4);stroke-width:3.5;stroke-linecap:round;stroke-linejoin:round;stroke-miterlimit:3.4;stroke-dasharray:none;stroke-opacity:1;paint-order:markers fill stroke"
       d="m 399.43799,323.32458 -0.44194,-0.39775 -1.40317,-0.39775 -0.46403,-0.18782 0.54137,-0.62977 0.4309,-0.7734 0.32041,-1.53575 0.54722,-0.96484 0.5625,-1.28125 4.53125,0.1875 3.65625,-5.40625 1.09375,-2.1875 1,-2.875 -0.21875,-2.84375 -0.375,-1.3125 0.625,-2.75 0.5625,-1.75 -0.3125,-2.28125 -1,-1.8125 -0.90625,-0.53125 3.0625,-3.3125 4.21875,-0.0625 7.21875,6 -0.15625,1.21875 -0.875,1.1875 0.65625,2.71875 0.65625,0.40625 0.53125,1.6875 0.65625,0.5625 0.1875,4.28125 -1.11824,2.18282 -1.03857,1.30373 -1.32582,1.32582 -1.45841,0.48614 -1.65728,1.03856 -0.88389,1.37002 -0.64081,0.90598 -0.7734,1.19325 -2.01083,2.96101 -1.98874,1.98873 -0.72921,0.70711 -1.56889,-0.0221 -0.48614,0.44194 0.28727,1.12696 -0.7955,2.18761 -1.14905,0.48613 -0.86178,0.7955 -2.47488,-0.19888 -1.10485,-0.92807 -1.90035,-0.26517 -1.06066,-0.79549 c 0,0 -0.37565,-0.55243 -0.33146,-0.7955 0.0442,-0.24307 0.16573,-2.45277 0.16573,-2.45277 z"
       id="path12" />
    <path
       style="opacity:0.753582;fill:rgba(var(--light));fill-opacity:1;stroke:rgba(var(--main),0.4);stroke-width:3.5;stroke-linecap:round;stroke-linejoin:round;stroke-miterlimit:3.4;stroke-dasharray:none;stroke-opacity:1;paint-order:markers fill stroke"
       d="m 370.4375,338.875 1.4375,-1.1875 10.3125,0.3125 1,-0.9375 1.8125,-0.875 1.1875,-0.6875 h 2.75 l 0.9375,-0.625 -0.0625,-1 v -1.25 l 1.5625,-2.8125 2.0625,-3.625 2.6875,-5.5 0.6875,-1.3125 0.4375,-2.375 1,-1.1875 4,-0.125 1.375,-0.6875 0.625,-1.1875 0.6875,-1.875 1.625,-1.4375 0.75,-1.6875 1.125,-1.875 0.0625,-1.625 v -2.6875 l -0.1875,-0.875 0.5,-1.75 -0.125,-1.5625 -0.75,-1.6875 -0.875,-1.5625 -1,-1.4375 -0.375,-0.4375 L 406.75,292 408.4375,290.5 410,288.75 c 0,0 2.0625,0.1875 2.4375,0.125 C 412.8125,288.8125 417,288.5 417,288.5 l -0.8125,-1.25 -2,-1 -1.1875,-1.125 -0.3125,-3.9375 1.0625,-1.4375 0.125,-1.375 -0.125,-1.0625 7.125,-7.5 1.0625,-0.25 -0.0625,-1.9375 -2.0625,-2.25 -5.4375,-1.9375 -4.0625,-0.125 -6.4375,-4.8125 -2.25,-2.375 -1.1875,-0.1875 -0.6875,0.25 h -3.4375 l -1.5625,-1.125 -3.875,-1.6875 -3,-2.8125 -2.4375,-0.9375 -0.0625,-0.3125 -1.25,0.125 -0.3125,0.5 -2.3125,1.3125 -1.3125,-0.3125 -0.6875,-0.5 L 375.625,248 v -0.625 l 0.4375,-0.5 0.5,-0.8125 0.375,-0.625 -0.4375,-0.25 -1.5625,-0.1875 -1.5625,-0.8125 h -1.4375 -0.625 l -0.4375,0.6875 -1.6875,0.3125 -0.875,0.0625 -0.875,0.25 -10.0625,7.75 -1.1875,0.25 -0.5,0.625 -3.625,0.1875 h -1.125 L 350.875,253 l -0.25,-1.125 0.25,-0.5 -0.5,-0.125 -1.625,0.0625 -0.75,-0.1875 -1.75,-1.9375 -1.5625,1 -1.5,1.3125 -1,0.9375 -0.125,1.0625 -1.0625,1.75 -0.5625,1.5625 0.9375,1.375 1.1875,0.125 0.0625,2.125 v 1 l -0.1875,1.1875 -0.125,1 -0.5625,0.5 -0.5625,-0.625 -0.25,-0.375 -0.6875,0.125 -1.25,0.6875 -1.5625,0.5 -0.5,-0.125 h -0.875 l -0.25,1.1875 -0.0625,1.4375 -0.5,1.125 0.4375,1.0625 0.875,1 1.0625,1.375 0.5,1.625 0.0625,1.6875 -0.75,1.625 -1.0625,1.5625 -1.1875,1.0625 -0.75,1.3125 0.125,0.875 0.875,1.0625 0.6875,1.4375 0.125,4.75 -1.75,1.875 -6.0625,4.125 -1.6875,-0.3125 -1,-0.6875 -2,-0.125 -0.9375,-1 -4.0625,-0.1875 -1,-0.4375 -1.3125,-0.0625 -0.625,0.75 -4.6875,1.625 -4.0625,1.125 -3.8125,0.1875 -1.75,0.875 -1.8125,1.3125 -1,1.625 -2.5625,2.3125 -1.0625,2.3125 -0.875,1.125 -0.6875,5.3125 v 0.625 l 0.3125,-1 0.8125,-0.125 1.3125,-1.375 0.9375,-0.4375 5.0625,-0.0625 1.4375,0.6875 2.5,1.0625 3.375,0.125 1.3125,0.3125 2.625,1.5625 1,1.4375 2.0625,-0.5625 2.625,-0.125 3,-0.6875 1.9375,-1 c 0,0 1.75,-0.5 3.125,-0.3125 1.375,0.1875 6.3125,0 6.3125,0 l 2.25,0.5 0.8125,2.6875 1.0625,2.5625 0.375,1.5 -0.375,0.75 1.125,0.625 v 1.4375 l -0.375,1.125 -1.0625,0.75 0.3125,0.625 0.875,1.5 0.95312,2.46875 0.85938,0.60937 2.95312,0.29688 c 0,0 0.76563,0.98437 0.84375,0.9375 0.0781,-0.0469 1.76563,0.14062 1.76563,0.14062 l 0.71875,0.54688 -1.71875,0.75 -0.40625,0.59375 0.15625,2.0625 -0.38281,1.36719 -0.46875,1.625 -0.28907,3.28906 -0.76562,0.9375 0.5,1.20312 1.48437,1.70313 1.03125,0.90625 0.96875,2.5 3.21875,-0.26563 3.32813,-1.0625 2.92187,-1.8125 2.59375,-1.65625 3.98438,-0.82812 3.4375,-1.0625 2.125,-0.9375 z"
       id="path13" />
    <path
       style="opacity:0.753582;fill:rgba(var(--light));fill-opacity:1;stroke:rgba(var(--main),0.4);stroke-width:3.5;stroke-linecap:round;stroke-linejoin:round;stroke-miterlimit:3.4;stroke-dasharray:none;stroke-opacity:1;paint-order:markers fill stroke"
       d="m 326.9485,262.77856 8.48528,-0.22097 0.17678,-3.0494 -2.3423,-1.06066 -6.8059,-0.7955 -0.61872,1.10486 0.26517,4.06586 z"
       id="path14" />
    <path
       style="opacity:0.753582;fill:rgba(var(--light));fill-opacity:1;stroke:rgba(var(--main),0.4);stroke-width:3.5;stroke-linecap:round;stroke-linejoin:round;stroke-miterlimit:3.4;stroke-dasharray:none;stroke-opacity:1;paint-order:markers fill stroke"
       d="m 178.2793,233.69879 2.34229,-1.72357 1.85615,-2.2539 1.45841,-2.16552 0.48614,-1.19324 1.32582,-1.41422 0.0884,-1.67937 1.10485,-1.67938 0.57453,-0.88389 v -1.85615 l -0.53033,-3.22618 -0.22097,-2.2539 -0.92808,-1.63518 -0.17678,-4.19845 -0.92807,-2.2981 -3.57973,-0.17677 -0.48614,-0.66292 -13.39083,-0.26516 h -0.57453 l -0.0442,-7.82237 -0.88388,-1.19324 0.0442,-15.11441 0.70711,-0.61872 -1.94455,-1.98874 -3.62392,-0.22097 c 0,0 1.59099,1.76777 -3.44714,-1.94454 -5.03814,-3.71231 -6.36397,-5.96621 -6.36397,-5.96621 l -8.88302,0.26516 -4.02167,6.36396 -2.07713,4.37522 -4.15425,2.03294 -5.65686,2.43068 -5.03813,1.85615 -2.03294,1.19324 -1.10485,0.88389 2.60746,0.30936 1.54679,1.59099 0.7513,2.78423 0.26517,3.57973 -1.14905,2.16551 -0.88388,0.7513 0.7513,4.81717 0.0884,3.8007 1.5026,2.38648 1.90035,4.11006 4.99394,4.06587 3.97747,2.78423 0.61872,0.83969 8.13173,0.13258 4.46361,1.5026 7.91076,3.8007 3.31456,1.72357 4.72878,3.18198 0.83969,0.7955 11.79984,0.0442 0.88389,0.26517 0.30936,0.92808 0.30936,-0.97228 z"
       id="path15" />
    <path
       style="opacity:0.753582;fill:rgba(var(--light));fill-opacity:1;stroke:rgba(var(--main),0.4);stroke-width:3.5;stroke-linecap:round;stroke-linejoin:round;stroke-miterlimit:3.4;stroke-dasharray:none;stroke-opacity:1;paint-order:markers fill stroke"
       d="m 105.6875,191.6875 2.875,-2.9375 3.1875,-0.75 c 0,0 0.625,-0.625 0.875,-0.4375 0.25,0.1875 1.875,1.5625 1.875,1.5625 l 2.5,0.4375 -3,0.4375 -1.875,0.4375 -2.25,0.6875 -2.5625,1.0625 -1.1875,0.5 -0.75,-0.125 z"
       id="path16" />
    <path
       style="opacity:0.753582;fill:rgba(var(--light));fill-opacity:1;stroke:rgba(var(--main),0.4);stroke-width:3.5;stroke-linecap:round;stroke-linejoin:round;stroke-miterlimit:3.4;stroke-dasharray:none;stroke-opacity:1;paint-order:markers fill stroke"
       d="m 83.571183,208.72908 0.353553,-0.61872 2.65165,-2.12132 1.193243,-1.85615 1.988738,-1.41422 2.784233,-1.23743 3.844893,-1.90035 2.386485,-1.76777 2.651652,-1.72357 c 0,0 2.07712,-1.5026 2.07712,-1.67938 0,-0.17678 0.0442,-0.88388 0.0442,-0.88388 l -2.51907,-0.66292 -6.452348,-1.94454 -3.535534,-0.97227 -3.49134,-1.06066 c 0,0 -10.385631,-4.41942 -10.827572,-4.552 -0.441942,-0.13258 -1.90035,-1.45841 -1.90035,-1.45841 l -2.784233,-0.79549 -10.253048,-4.81717 -2.474874,-0.88388 -5.789437,-0.35356 -3.005203,-0.97227 -0.883884,-0.7071 -4.331029,0.0442 -2.165514,-0.97227 -3.579729,-0.13258 -1.104854,-0.17678 -0.839689,-0.88388 -4.242641,-0.13259 -1.811961,-0.57452 -4.419417,-1.10486 -3.535534,-1.10485 -2.563262,-0.83969 -0.662913,-0.22097 -1.104854,0.70711 -1.414214,0.53033 -0.486136,0.30936 -0.972272,0.57452 0.04419,1.19324 2.695844,4.15425 2.43068,3.40296 1.900349,2.91681 1.237437,1.45841 1.635185,0.88388 1.988737,1.5026 1.679379,1.37002 0.486136,1.5468 -0.309359,1.41421 -0.265165,0.26517 -0.397748,-0.0442 0.662913,0.53033 1.06066,0.83969 1.635184,0.0442 2.077126,0.17677 1.723573,0.83969 2.121321,0.0442 0.53033,0.13258 0.265165,0.7513 -0.397748,0.70711 0.441942,1.23744 0.574524,0.66291 0.176777,1.54679 -0.132583,0.92808 0.441942,0.0442 1.988738,-1.06066 7.071068,-0.17678 0.353553,-0.70711 1.546796,-1.01646 2.165515,-1.85616 2.032932,-0.61872 0.397747,-0.7071 1.767767,0.13258 0.309359,1.72357 0.220971,6.23138 0.574524,0.79549 0.30936,7.86657 0.08839,0.17677 3.623922,-0.0884 c 0,0 0.574525,-0.57453 0.751301,-0.57453 0.176777,0 1.325825,-0.44194 1.325825,-0.44194 l 0.441942,-0.57452 1.988738,-0.22098 h 13.302446 l 0.662913,0.66292 1.458408,0.39775 z"
       id="path17" />
    <path
       style="opacity:0.753582;fill:rgba(var(--light));fill-opacity:1;stroke:rgba(var(--main),0.4);stroke-width:3.5;stroke-linecap:round;stroke-linejoin:round;stroke-miterlimit:3.4;stroke-dasharray:none;stroke-opacity:1;paint-order:markers fill stroke"
       d="m 296.27774,298.0897 1.81196,-1.54679 0.0442,-1.14905 1.19324,-0.7513 1.23744,0.0884 0.57452,-0.57452 2.56326,-0.53033 1.41422,-0.79549 4.28683,-0.0884 0.53033,-0.7955 1.81196,-0.26516 0.57453,-0.92808 1.67937,-0.13258 0.97228,-0.7955 6.14299,0.0442 2.16551,0.88388 1.76777,0.22097 1.10485,0.66291 2.60746,0.13259 0.66291,-0.92808 1.98874,-0.7955 1.45841,-0.66291 0.53033,-0.66291 1.41421,-1.45841 -0.0884,-2.96101 -1.63518,-1.76777 -0.48614,-2.69584 -0.35355,-0.26517 4.28683,-4.90555 -0.66291,-1.01647 -0.22097,-1.41421 -0.7955,-0.83969 -0.92807,-0.39775 -0.35356,-1.19324 0.66292,-3.35876 0.22097,-1.81196 -3.00521,-0.22097 -4.59619,-0.17678 h -1.45841 l -0.61872,-3.53553 -0.30936,-3.49134 0.7513,-1.32582 1.85616,-0.30936 1.5468,-0.17678 1.32582,0.7955 2.12132,0.35355 1.90035,-0.13258 1.63519,0.17677 1.28163,0.61872 0.61871,1.59099 -0.35355,2.47488 0.0442,1.41421 0.39774,-0.0442 1.72358,-1.10485 0.83969,-1.01647 -0.53033,-1.85615 -1.06066,-0.48614 0.13258,-1.67938 1.14905,-3.35875 -0.0884,-1.19325 1.45841,-1.14904 4.24264,-3.93329 1.32582,0.0442 1.98874,0.97227 0.66291,1.23744 -0.0884,0.39774 0.30936,0.26517 0.57453,-0.61872 1.63518,-1.59099 0.0884,-1.90035 0.70711,-0.92808 0.0884,-0.48613 -1.81196,-1.01647 -1.85615,-2.07712 -0.30936,-0.53033 0.0884,-8.26431 c 0,0 0.79549,-1.63519 0.79549,-1.81197 0,-0.17677 0.13259,-2.69584 0.13259,-2.69584 l 0.53033,-1.19324 -1.14905,-0.70711 -2.47488,0.48614 -5.87782,2.16551 -3.18198,1.23744 -2.51907,1.28163 -6.62913,0.0442 -1.14905,-0.66291 -2.82842,-0.83969 -2.74004,-1.19324 -1.98874,-1.32583 -3.0494,-4.15425 -0.17677,-0.7513 -0.53033,0.88388 -0.35356,0.26517 -0.97227,2.56326 -0.57452,1.76777 -0.0884,1.28163 -2.65165,0.0442 -1.41422,-0.66291 -2.2097,-0.26517 c 0,0 -0.61872,-0.66291 -0.83969,-0.66291 -0.22097,0 -2.34229,-0.30936 -2.34229,-0.30936 l -0.66292,-0.83969 h -1.54679 l -1.32583,-0.92807 -0.61872,-0.35356 -0.17677,1.41422 -0.26517,1.76776 -0.7513,1.90035 -0.88388,1.37002 -1.14905,1.81196 -0.88389,1.50261 -0.30935,1.41421 -0.57453,2.47487 -0.0884,1.98874 -0.30936,2.12132 -0.7071,1.23744 -0.0442,1.54679 -0.7071,1.63519 -1.41422,2.78423 -1.06066,1.41421 h -1.5026 l -1.10485,0.26517 -1.63519,0.97227 -0.53033,2.34229 -0.57452,0.97227 -0.44194,1.59099 -0.17678,1.32583 -1.5468,2.12132 -2.60745,0.48614 -1.81196,-0.17678 -0.7955,0.97227 -2.56326,3.57973 -3.40295,4.64039 -1.5468,1.85615 -0.70711,1.81196 -0.57452,0.7513 -0.66291,1.94455 -0.53033,1.41421 -0.13259,2.38649 0.30936,1.45841 0.61872,1.23743 0.30936,3.44715 0.57453,0.30936 0.30935,2.12132 -0.13258,1.72357 0.17678,1.06066 1.01647,1.32583 1.14904,1.37001 4.37523,0.0884 2.91681,1.41422 3.27037,1.4584 1.59099,0.53033 2.2981,1.06066 2.74004,1.19325 1.59099,0.92807 1.19324,0.66292 0.22097,0.17677 0.48614,-0.0884 0.7071,-1.06066 0.83969,-1.41422 1.14905,-1.32582 z"
       id="path18" />
    <path
       style="opacity:0.753582;fill:rgba(var(--light));fill-opacity:1;stroke:rgba(var(--main),0.4);stroke-width:3.5;stroke-linecap:round;stroke-linejoin:round;stroke-miterlimit:3.4;stroke-dasharray:none;stroke-opacity:1;paint-order:markers fill stroke"
       d="m 334.8125,228.9375 1.4375,-0.8125 2.40625,-0.34375 0.53125,-0.78125 2.46875,-0.4375 0.46875,-0.65625 2.125,-0.3125 0.6875,-0.6875 1.8125,-0.25 0.78125,-0.75 1.34375,-0.28125 -0.13877,-6.27805 1.14904,-1.50261 0.0884,-1.67937 1.01647,-2.16552 0.79549,-0.44194 -0.57452,-0.22097 -0.57453,-0.88388 -3.18198,-0.26517 -1.4584,-1.67938 -0.7513,-0.7513 0.53033,-1.28163 0.44194,-1.85616 1.19324,-2.03293 0.79549,-2.03293 1.28164,-1.5468 1.19324,-1.06066 c 0,0 1.41421,-0.44194 1.59099,-0.57452 0.17678,-0.13258 1.14905,-1.14905 1.14905,-1.14905 l -0.17678,-0.13258 0.92808,-0.35355 0.39775,-0.17678 -2.16552,-0.39775 -1.63518,0.0884 -1.14905,-0.88388 -1.19324,-0.66292 -2.25391,-3.8007 -0.57452,-1.59099 0.26516,-0.83968 -0.7071,-1.45841 -1.10486,-2.25391 -0.88388,-1.72357 -0.48614,-1.54679 -2.34229,-0.44195 -0.30936,-1.63518 -0.0884,-1.10485 0.53033,-0.22098 0.92808,-1.85615 1.98874,-2.91682 0.7955,-1.41421 h 1.19324 l 2.29809,-0.0442 0.17678,-0.97228 -0.0884,-2.34229 -0.97227,-1.19324 -1.67938,-0.0884 h -0.92807 l -0.22098,0.97227 -0.79549,0.30936 v 1.32583 l -0.44194,0.17677 h -0.26517 l -0.39775,-0.44194 -0.22097,-0.92807 -0.7071,-0.48614 -1.28163,-1.94454 -2.2981,-3.62393 -1.5026,-2.03293 -0.70711,-1.5026 -0.44194,-0.48614 0.0442,-2.38648 -0.0442,-3.0494 0.92808,-0.53033 v -1.5468 l 0.39774,-0.83969 0.53033,-0.88388 0.22097,-1.94454 0.83969,-0.70711 -0.0442,-1.41421 -0.88388,-0.57453 -0.13259,-3.22617 0.17678,-2.65165 c 0,0 0.35355,-0.44194 -0.13258,-0.61872 -0.48614,-0.17678 -0.7955,-0.35355 -0.7955,-0.35355 l -1.01646,-0.92808 -1.23744,-0.7955 -1.32583,-0.48613 -1.23743,-0.48614 -2.47541,-0.8933 -3.22986,-0.97504 0.20673,0.86872 3.81158,2.71247 0.84727,1.11558 -0.44194,1.06066 -0.66292,1.32582 -0.79549,1.14905 -0.26517,1.98874 -0.61871,1.28163 -2.47488,3.13779 -1.67938,2.82842 -1.28163,1.10486 -1.72357,0.44194 h -1.37002 l -0.88388,0.92808 -1.59099,0.88388 -0.7513,1.37002 -0.22098,2.12132 -0.57452,2.69585 -0.61872,0.39774 0.48614,0.88389 0.44194,1.28163 1.59099,1.06066 0.0442,2.03293 -0.7513,0.61872 0.17678,2.2981 -1.01647,3.04939 -1.10485,1.32583 -3.40295,4.06586 -2.74004,3.57973 -1.85616,2.03293 -1.32582,3.75651 -1.45841,2.96101 -0.83969,2.96101 -1.41421,0.7513 -0.30936,2.47487 -0.7955,3.09359 -0.92807,2.12132 -0.13259,2.96101 -0.66291,1.98874 -0.53033,2.20971 -0.0884,1.32583 0.39775,4.99394 v 3.71231 l 0.0884,3.84489 0.17678,0.92808 4.24264,-4.24264 0.44194,1.98874 0.0884,2.12132 -0.13259,1.06066 -0.92807,0.7513 0.44194,0.30936 1.10485,0.53033 1.37002,0.17677 1.5468,0.7513 1.98874,0.48614 1.19324,0.70711 2.07712,0.22097 0.57453,0.7071 0.26516,-0.26516 v -2.60746 l 0.57453,-0.88388 0.35355,-0.57452 0.17678,-1.10486 1.19324,-1.28163 0.7955,-0.22097 1.94454,0.30936 0.53033,1.06066 1.81196,2.03293 2.34229,2.69585 1.5468,0.26516 0.66291,0.92808 1.85616,0.0442 0.53033,0.48614 1.72357,0.30936 0.53033,0.7513 4.46361,0.17678 0.66291,-0.88389 z"
       id="path19" />
    <path
       style="opacity:0.753582;fill:rgba(var(--light));fill-opacity:1;stroke:rgba(var(--main),0.4);stroke-width:3.5;stroke-linecap:round;stroke-linejoin:round;stroke-miterlimit:3.4;stroke-dasharray:none;stroke-opacity:1;paint-order:markers fill stroke"
       d="m 423.46857,293.31673 1.41422,-1.23744 0.66291,-1.01646 1.63518,-1.85616 0.66292,-0.92807 0.83969,-1.63519 0.0884,-4.33103 0.83969,-0.97227 0.44194,-3.09359 0.75131,-0.97227 0.35355,-4.86136 0.57452,-1.59099 0.44195,-2.96101 1.06066,-3.31457 0.44194,-0.92807 0.0442,-2.2981 -0.79549,-1.10486 -0.26517,-3.35875 0.0884,-11.22532 0.0442,-3.0494 0.66292,-1.14905 0.22097,-1.85615 1.06066,-1.90035 0.39774,-2.38649 0.66292,-1.14905 0.22097,-1.10485 0.57452,-0.48614 0.35356,-2.07712 0.97227,-3.35876 0.44194,-0.97227 0.83969,-0.39775 h 1.19324 l 0.66291,0.66291 0.7513,0.92808 0.61872,1.10485 -0.17677,1.5468 0.26516,0.92808 0.26517,-0.83969 0.66291,-0.57453 1.45841,-1.14904 1.5026,-1.41422 0.22097,-0.53033 0.35355,-1.01646 2.69585,-2.82843 0.44194,-1.28163 0.88388,-0.97227 0.97227,-1.50261 0.17678,-0.7071 1.5468,-1.94455 0.0884,-0.66291 -0.30936,-0.22097 h -3.31457 l -0.61871,-0.53033 -0.88389,-1.41421 -0.61872,-0.26517 -1.01646,-2.51907 -0.35356,-1.90035 -0.79549,-0.7071 -0.13258,-3.66812 0.79549,-0.66291 3.18198,0.13258 1.14905,-0.13258 0.13258,-2.51907 0.70711,-1.59099 v -1.67938 l -0.92808,-1.45841 -1.85615,-3.40295 -0.22097,-1.72357 -0.26517,-0.70711 0.57453,-1.23743 -3.13779,-1.67938 -0.44194,-2.60746 -3.53554,-2.65165 -5.43588,-3.09359 -2.12132,-1.45841 -2.78423,1.90035 -1.81196,1.23744 -2.16552,2.16551 -2.74004,2.38649 -0.92808,1.54679 -1.90034,0.44195 c 0,0 -0.75131,0.7071 -0.92808,0.7513 -0.17678,0.0442 -3.62392,0 -3.62392,0 l -1.50261,-1.50261 -1.10485,-2.60745 -0.26517,-3.40295 -1.01646,-0.92808 -2.38649,-1.28163 h -0.7071 l -0.17678,1.45841 -1.5468,1.59099 -4.37522,3.44714 -1.14905,0.53033 -1.5026,0.48614 -12.68373,0.17677 -1.41421,-0.79549 -1.63519,-0.13258 -3.57972,0.13258 -0.48614,0.66291 -0.44194,0.39775 0.39775,0.79549 0.30935,1.81197 v 3.13778 l 0.13259,1.28163 -0.97227,1.06066 -0.92808,1.19325 v 1.4584 l -1.59099,1.28163 -2.34229,1.63519 -3.00521,1.32582 -2.87262,1.10486 -1.32582,0.79549 -4.68459,0.0884 -1.67938,-0.70711 -2.2097,-1.81196 -1.85616,-1.85615 -0.44194,-1.59099 -0.48614,-0.97227 -0.53033,-0.22097 -0.83969,0.79549 -1.28163,0.35355 -0.97227,0.7955 -1.59099,1.28163 -1.19324,0.92808 -0.53033,0.17677 -0.57453,1.14905 -0.7513,0.83969 -0.22097,0.88389 -0.83969,1.37002 -0.7513,1.5026 -0.0442,1.06066 0.7071,1.14905 1.63519,0.17677 1.10485,0.0442 h 0.53033 l 1.01647,1.06066 0.44194,0.66291 0.17678,1.94454 -0.70711,1.06066 -0.44194,1.37002 -0.7513,0.7955 -0.26517,1.63518 -0.39774,2.03293 -0.44195,1.14905 -0.0884,3.35876 0.53033,0.48614 1.5026,1.5026 0.57452,0.66291 -0.35355,0.83969 -0.0884,1.10485 -0.92808,1.01647 -0.17677,0.48614 -0.13259,4.02167 -0.53033,1.19324 -0.26516,0.57452 -0.0442,3.71231 0.53033,0.53033 1.32583,1.81196 0.97227,0.26517 0.83969,0.7513 0.35355,1.81196 -0.17677,1.72357 -0.61872,1.10486 -0.48614,0.44194 v 1.63518 l -0.7513,0.57453 -0.0884,1.14905 0.17678,1.19324 0.61872,0.35355 1.32582,-0.35355 0.17678,-0.39775 1.63518,-0.53033 2.47488,-1.32582 2.43068,-2.12132 1.94454,-1.32583 2.34229,-1.67938 1.19325,-1.23743 2.03293,-0.13259 1.14905,-0.57452 0.83969,-0.39775 4.11005,0.0884 1.98874,0.0884 1.19324,0.79549 1.37002,0.26517 1.28163,0.22097 0.22098,0.53033 -0.39775,0.30936 -1.67938,0.39775 -0.30936,0.0884 0.17678,0.7071 -0.26517,0.83969 V 247.62 l 1.63519,0.7513 1.01646,0.26516 1.23744,-0.22097 1.23744,-0.66291 3.44714,0.0442 1.10486,0.7513 1.59099,0.35356 1.72357,1.81196 2.38648,1.5026 2.2981,1.06066 1.41421,0.97227 1.19325,0.22097 0.83969,-0.53033 2.96101,-0.17677 1.59099,0.48613 0.44194,0.92808 -0.26517,0.53033 2.87262,2.51907 2.07713,1.98873 1.85616,1.37002 4.77297,0.17678 1.94454,0.97227 2.16551,0.97227 2.3423,1.14905 1.32582,1.76777 1.14905,1.5468 -0.39775,1.63518 -0.35355,0.88388 -1.37002,0.70711 -2.51907,2.56326 -1.76777,1.76777 -2.65165,2.34229 -0.39774,1.41421 v 2.3423 l -0.44195,0.7071 -0.48613,0.48614 0.0442,0.61872 0.48614,0.0884 0.39775,0.7071 4.64038,3.57973 0.26517,0.61872 -0.61872,0.61872 -0.17678,1.28163 0.48614,0.48613 0.66291,0.7955 2.20971,1.41421 0.61872,0.53033 z"
       id="path20" />
    <path
       style="opacity:0.753582;fill:rgba(var(--light));fill-opacity:1;stroke:rgba(var(--main),0.4);stroke-width:3.5;stroke-linecap:round;stroke-linejoin:round;stroke-miterlimit:3.4;stroke-dasharray:none;stroke-opacity:1;paint-order:markers fill stroke"
       d="m 455.09375,213.5625 0.96875,-0.875 1.09375,-1.34375 0.75,-1.03125 1.875,-2.5 0.71875,-1.6875 1.375,-1.6875 1.53125,-1.21875 2.5,-1.34375 0.0625,-1.21875 -2.9375,-2.59375 -3.75,-2.28125 -1.65625,-0.90625 -1.53125,-1.3125 -2.53125,-0.34375 -1.75,-0.84375 -1.1875,-0.96875 0.6875,2.0625 1.28125,1.5 0.78125,1.46875 0.6875,2.5625 -0.28125,2.125 -0.4375,1.8125 -1.03125,1.59375 -0.96875,0.46875 -1.15625,0.1875 h -1.3125 l -1.3125,0.0937 -0.1875,0.4375 0.34375,1.0625 0.59375,1.5 0.1875,1.15625 0.9375,1.9375 1.5,0.875 0.3125,1.09375 0.34375,0.375 1.125,-0.0625 1.78125,0.0937 z"
       id="path21" />
    <path
       style="opacity:0.753582;fill:rgba(var(--light));fill-opacity:1;stroke:rgba(var(--main),0.4);stroke-width:3.5;stroke-linecap:round;stroke-linejoin:round;stroke-miterlimit:3.4;stroke-dasharray:none;stroke-opacity:1;paint-order:markers fill stroke"
       d="m 451.86333,189.52671 -1.5247,-1.28163 -0.7513,-0.41984 -0.46404,-0.37565 2.74004,-1.43631 0.7292,-1.30373 0.90598,-1.30373 0.59663,0.53033 1.65728,0.44194 0.97227,0.7955 0.95017,0.24307 0.44195,1.23743 0.7292,1.21534 1.56889,0.68501 1.01647,0.86179 1.41421,0.0884 3.62392,-0.17678 2.82843,-0.0442 3.88909,-2.38649 0.97227,-1.41421 1.41421,-1.28163 5.17072,-0.0442 1.72357,0.70711 1.32583,0.57452 -0.92808,1.41422 -3.0494,2.87262 -1.67937,2.29809 -2.96101,2.3423 -4.46362,4.68458 -1.5026,1.54679 -1.01646,0.17678 -1.59099,-1.14905 -3.66812,-3.13778 -3.0052,-2.20971 -2.07713,-1.23744 -0.92808,-1.06066 -2.07712,-0.13258 -1.10486,-0.61872 -1.37002,-0.97227 z"
       id="path22" />
    <path
       style="opacity:0.753582;fill:rgba(var(--light));fill-opacity:1;stroke:rgba(var(--main),0.4);stroke-width:3.5;stroke-linecap:round;stroke-linejoin:round;stroke-miterlimit:3.4;stroke-dasharray:none;stroke-opacity:1;paint-order:markers fill stroke"
       d="m 472.6875,184.125 1.6875,-1.0625 3.875,-0.125 h 4.5 l 1.375,0.6875 0.5,0.25 1.5,-3.3125 1.8125,-3.8125 0.9375,-2.1875 0.3125,-3.5 0.625,-1.0625 -2,-1.6875 -1.3125,-0.9375 -3.1875,-0.0625 -0.75,0.8125 -0.1875,1.1875 -0.6875,0.75 -2,0.125 -1.0625,0.9375 -4.0625,1.0625 -3.25,1.0625 -2.0625,0.875 -1.5,0.5625 -1.625,1.125 -2.125,0.25 -1.9375,-0.4375 -1.25,-1.125 -0.9375,-2.375 0.1875,-2.5 0.875,-1.75 -0.0625,-1.125 V 166 l 0.5,-0.3125 1.125,0.1875 0.375,-0.5625 -1.125,-0.9375 -1,-0.5625 -2.75,1.6875 -2.75,1.875 -3.6875,1.6875 -2.25,1.125 -1.625,-0.1875 -2.25,-0.8125 -1.6875,-1.3125 -0.0625,-0.5 -0.625,0.4375 -2.8125,0.3125 h -2.5 l -2.8125,-1 -3,-2.5625 -2.1875,-1.4375 -5.875,0.375 -2.5625,-0.125 h -0.9375 l 0.3125,2.875 0.5625,3.875 -0.5625,2 -3.875,2.125 -2,1.375 -1.375,1.5 1.75,1.25 1.4375,0.6875 0.5625,0.625 -0.625,0.625 -0.1875,1.375 1.0625,2.375 0.8125,2.625 0.5625,0.375 1.0625,-0.25 0.0625,-0.625 1.5625,-0.375 1.75,-1 2,-2.1875 1,-1.5625 1.125,-0.3125 1.625,-1.4375 1.75,-1.9375 2.125,-1.75 0.8125,-0.1875 2.6875,1.625 3.8125,2.1875 2.3125,1.3125 3.8125,2.5 1.1875,1.4375 0.25,1.0625 0.8125,0.125 0.8125,-0.8125 1.125,-0.4375 1.25,-2.0625 0.5,-0.5625 h 2.5625 l 1.875,1.125 2.4375,1.25 0.625,1.625 1.0625,0.6875 2.375,1.375 4.375,-0.375 3.4375,-1.0625 0.75,-1.25 z"
       id="path23" />
    <path
       style="opacity:0.753582;fill:rgba(var(--light));fill-opacity:1;stroke:rgba(var(--main),0.4);stroke-width:3.5;stroke-linecap:round;stroke-linejoin:round;stroke-miterlimit:3.4;stroke-dasharray:none;stroke-opacity:1;paint-order:markers fill stroke"
       d="M 441.5,166.75 442.4375,166 443.75,164.6875 444.5625,163 c 0,0 0.9375,-0.5 0.375,-0.6875 -0.5625,-0.1875 -2.0625,-1.375 -2.0625,-1.375 v -2.875 l 0.4375,-2.375 1.4375,-3.75 0.4375,-3.1875 1.875,-2.0625 1.75,0.1875 2.8125,-3.1875 1.5625,-2.75 1.875,-4 1,-1.8125 1.875,-1.125 1.25,-0.4375 1.6875,-0.625 1,-0.5 -1.8125,-1.125 -1.9375,-0.5 -8.375,-9.1875 -1.125,-1.875 -2.875,-2.3125 L 434.625,110 431.0625,107.5625 430.25,107 l -14.1875,0.1875 0.1875,1.3125 -0.8125,1.1875 -1.125,1.0625 0.4375,1 0.4375,2.75 -0.25,1.0625 1.125,0.8125 1,2.1875 0.0625,2.125 L 417,122 l -0.6875,0.75 1.375,2.1875 0.5,2.0625 0.0625,10.5 -0.0625,5.4375 0.75,2.8125 0.5625,4.5625 0.625,2.5625 1.25,4.5 v 4.0625 l 2.375,0.5 3.0625,0.1875 5.4375,-0.125 2.1875,0.6875 2.1875,2.1875 1.5,2.125 h 2.375 l 0.75,-0.1875 z"
       id="path24" />
    <path
       style="opacity:0.753582;fill:rgba(var(--light));fill-opacity:1;stroke:rgba(var(--main),0.4);stroke-width:3.5;stroke-linecap:round;stroke-linejoin:round;stroke-miterlimit:3.4;stroke-dasharray:none;stroke-opacity:1;paint-order:markers fill stroke"
       d="m 446.5,150.25 1.8125,-2.125 1.6875,-0.375 1.6875,-1.3125 2,-2.25 2.5625,-4.1875 0.5625,-2.4375 3.125,-2.5625 1.3125,-0.125 0.8125,-0.5625 h 0.75 l 0.6875,1.125 4.125,1.625 3,1.125 h 3.5625 l 6.25,0.0625 1.75,0.4375 2.8125,3.6875 2.5625,6.625 0.875,3.1875 0.4375,2.9375 -2.4375,-0.0625 -3,-0.75 -4.6875,-1.1875 -2.4375,-0.9375 h -2.1875 l -1.5625,1.125 -1.5625,1.625 -1.9375,1.0625 -4.125,0.8125 -3,-0.1875 -2.375,-1.4375 0.6875,-1.6875 0.4375,-1.125 2.3125,-2.8125 0.4375,-1.0625 -1.125,-1.375 -1.8125,-0.375 -2.5,0.8125 -1.5625,0.375 -1.6875,2.125 -1.625,1.1875 -1.875,1.0625 -1.875,-0.3125 -1.5,-0.875 z"
       id="path25" />
    <path
       style="opacity:0.753582;fill:rgba(var(--light));fill-opacity:1;stroke:rgba(var(--main),0.4);stroke-width:3.5;stroke-linecap:round;stroke-linejoin:round;stroke-miterlimit:3.4;stroke-dasharray:none;stroke-opacity:1;paint-order:markers fill stroke"
       d="m 353.77436,193.12854 0.17678,-2.78423 1.19324,-2.87262 -0.26516,-3.0494 -0.22098,-2.51907 -0.48613,-0.70711 -0.35356,-4.72877 0.88389,-0.83969 1.45841,-1.5468 0.83969,-0.66291 0.13258,-1.28163 0.61872,-0.48614 0.57452,-1.59099 0.53033,-0.66291 v -2.65165 l 0.30936,-0.97227 0.7513,-0.61872 -0.35355,-1.19325 -0.53033,-0.39774 0.17677,-0.53033 1.06066,-0.22097 0.83969,-0.70711 1.41422,-1.06066 1.85615,-0.22097 1.72358,0.0442 1.14904,-1.14905 3.0936,-1.19324 3.57972,-2.51907 3.27037,-2.78423 0.88389,-1.32582 3.57972,-0.35356 0.70711,-0.70711 1.14905,0.44195 1.67938,1.19324 4.19844,0.48614 1.81197,-0.39775 0.53033,-0.97227 0.26516,-1.50261 0.7513,-0.7513 0.30936,-1.67938 -1.54679,-0.88388 -1.23744,-1.23744 -0.48614,-1.32582 v -3.75651 l 0.39775,-1.72357 1.85616,-2.12132 c 0,0 1.67937,-1.45841 1.67937,-1.67938 0,-0.22097 0.0442,-9.50174 0.0442,-9.50174 l -1.76777,-2.12133 -0.39775,-0.79549 0.53033,-1.06066 2.78424,-3.13779 3.04939,-3.88908 1.90035,-1.50261 1.06066,-0.26516 0.35356,0.39775 0.7071,-0.97228 0.70711,-0.57452 2.2539,-1.32582 1.41422,-1.41422 1.01646,-2.2539 -2.51906,-0.39775 -2.69585,-0.0884 -1.67938,-0.7071 -1.63518,-0.97228 -2.91682,-2.43068 -2.34229,-0.88388 -2.60745,-0.7513 -1.37002,-0.0442 -1.06066,-0.883887 -0.92808,0.574524 -2.2539,0.397743 -1.06067,0.0884 -1.72357,0.7513 -2.12132,0.30936 -1.32582,0.97227 -1.5468,0.61872 -0.30936,1.72358 -0.66291,1.14904 -1.01647,1.41422 -1.59099,1.10485 -1.85615,1.5026 -0.97227,0.17678 -0.39775,-1.85615 0.22097,-1.72358 1.06066,-2.34229 0.92808,-0.97227 0.22097,-1.85616 0.97227,-2.430675 1.63518,0.176777 0.17678,-1.811961 -0.70711,-2.342292 -0.7513,-2.563262 -4.33103,-3.800699 -0.79549,-0.574524 h -1.63519 l -2.43068,-1.193243 -6.36396,-3.447145 -1.14905,-0.397748 -1.23743,0.795495 -0.83969,1.546796 -0.48614,1.590991 -0.0442,5.170718 -0.0884,1.546796 -1.19324,1.59099 -0.53033,0.972272 -0.53033,1.811961 -1.59099,1.988743 -1.67938,1.32582 -0.57453,1.23744 0.35356,4.02167 -0.83969,0.88388 -1.37002,1.81196 -1.32583,2.51907 -3.04939,5.87782 -1.06066,1.37002 -3.0936,3.40296 -1.23743,1.85615 0.0884,0.61872 -1.23743,0.44194 -2.51907,-0.13258 -1.19324,1.01646 -3.31457,2.47488 -2.38648,1.59099 1.19324,0.66291 1.81196,0.70711 1.63519,0.61872 2.65165,1.01646 2.60745,1.90035 1.10486,0.83969 0.13258,1.41421 0.0442,2.56327 0.70711,1.94454 0.53033,2.65165 -0.30936,2.38649 -0.48613,1.4584 -0.7955,2.60746 -0.83969,2.78423 -0.48613,2.07713 0.83969,2.2539 1.98873,3.13779 1.81196,2.78423 1.5468,1.72357 0.92808,-0.79549 0.17678,-0.35355 4.06586,0.0884 1.63518,1.5468 0.22097,0.7955 -0.35355,0.30935 -0.0884,1.76777 -0.0884,1.76777 0.0442,0.53033 -0.66291,0.39775 -2.43068,0.17677 -0.48614,0.0442 -0.48614,1.01646 -0.79549,1.06066 -0.97227,1.32583 -0.7513,1.72357 -0.39775,0.7513 0.17678,0.70711 1.41421,0.53033 1.01647,1.67938 1.06066,2.03293 0.92807,1.59099 0.61872,1.32582 -0.13258,1.19325 v 0.88388 l 0.92808,1.23744 0.83969,1.81196 1.4584,1.5026 1.41422,0.61872 0.88388,0.44194 0.7513,0.26517 z"
       id="path26" />
    <path
       style="opacity:0.753582;fill:rgba(var(--light));fill-opacity:1;stroke:rgba(var(--main),0.4);stroke-width:3.5;stroke-linecap:round;stroke-linejoin:round;stroke-miterlimit:3.4;stroke-dasharray:none;stroke-opacity:1;paint-order:markers fill stroke"
       d="M 204.96875,152 204.625,149.5625 215.375,126 219.5625,116.875 228.4375,96.75 228.0625,96 217,90 l -9.9375,-6.375 -7.25,-6.9375 -2.875,-5.25 L 197.25,67.25 196,65.3125 195.4375,54.375 l 2.6875,-0.625 2.5625,-0.8125 1.6875,-3.25 8,-2.5 4.9375,-3.875 4.125,0.0625 7.125,0.75 1.75,-0.1875 5.0625,-6.1875 2.375,0.375 1.5,-0.5 c 0,0 -0.1875,-0.625 0.1875,-0.625 0.375,0 3.375,0 3.375,0 l 0.5,-0.8125 3.5,-0.125 2.1875,1.6875 -0.1875,8.125 1.3125,0.3125 3,-0.125 10.1875,4.75 2.125,3.5 2.75,6.25 1.8125,4.5 1.3125,3.9375 0.375,1.125 3.5625,1.625 1.6875,4.3125 0.1875,3.3125 1.6875,1.875 1.3125,1.0625 1.59375,-0.07813 1.90625,-0.0625 0.40625,0.453125 -0.5625,0.40625 -1.15625,-0.04687 -1.79688,-0.0625 -1.21875,0.765625 -1.0625,0.390625 -2.42187,1.1875 -0.85938,1.03125 0.0625,1.359375 1.42188,0.390625 6.60937,0.125 h 1.09375 L 283.04687,87.5 284.34375,87.15625 287.1875,85.5 l 2.6875,-1.46875 3.09375,-1.4375 2,-1.5625 0.21875,-1.34375 0.15625,-0.53125 h 0.3125 l 0.34375,0.9375 -0.0937,2.25 -0.0312,3 0.1875,0.78125 1.40625,1.59375 L 298,88.25 l -1.25,1.40625 -1.46875,-0.25 L 292.75,88.875 291.65625,88.15625 290.75,87.1875 289.71875,87.5 l -1.1875,1.5 -1.15625,2.5 -0.9375,1.125 0.9375,1.71875 0.6875,1.4375 0.5625,0.1875 1.3125,-0.09375 v -0.40625 l -0.65625,-0.8125 v -2.125 l 0.625,-0.375 0.53125,-1.59375 1.03125,-0.40625 1.03125,1.6875 1.25,1.3125 -0.0625,0.6875 L 293.03125,94 292.75,94.375 l 0.21875,2.15625 1.28125,1.5 1.375,1.03125 1,0.09375 L 297.34375,98.75 297,97.0625 l -1.46875,-0.875 -0.625,-0.75 0.46875,-0.6875 -0.0625,-1.40625 0.21875,0.03125 0.21875,1.125 0.625,0.65625 1.71875,0.15625 1.125,-0.3125 -0.0937,-0.65625 -0.75,-0.84375 -0.28125,-1.90625 1.125,-0.53125 1.21875,0.40625 5.71875,-0.15625 1.21875,0.125 1.46875,1.46875 2.3125,2.25 1.84375,1.75 1.15625,0.53125 1.03125,-0.3125 1.28125,-2.71875 1.15625,-2.625 2.96875,-1.90625 3.875,-1.625 1.125,0.3125 1,1.1875 1.40625,-2.34375 1.0625,-3.875 0.21875,-3.46875 2.65625,-2.59375 5.65625,-0.8125 3.34375,-0.5625 6.34375,4.25 2.40625,1.15625 0.6875,0.75 2.5,-0.09375 0.65625,-0.84375 0.40625,1.0625 -0.1875,2.15625 -0.0312,4.40625 0.15625,2.53125 L 353,92.9375 351.84375,95 l -0.8125,1.5 -1.96875,2.8125 -1.15625,1.3125 0.0312,4.46875 -0.15625,0.625 -1.3125,0.65625 -0.96875,2.25 -0.71875,1.125 -2.78125,5.40625 -2.40625,3.3125 -2.4375,2.5625 -1.09375,1.65625 -0.1875,1.03125 -3.1875,0.0937 -5.21875,3.9375 -2.90625,2.0625 -2.375,2 -1.0625,0.90625 -1.40625,0.5 0.1875,0.8125 1.375,0.21875 1.71875,0.5625 2.71875,0.75 2.0625,2.15625 -0.5,1.125 -0.5,0.84375 -0.125,2.34375 -0.5,0.9375 -1.46875,1.625 -1.8125,2.84375 -2.59375,2.1875 -2.96875,0.4375 -3.4375,2.09375 -0.0312,1.78125 -0.21875,2.9375 -0.6875,0.75 -0.375,2.5625 -0.28125,0.4375 1.0625,1.4375 0.46875,0.96875 1.0625,0.4375 -0.25,3.125 -0.65625,0.96875 -0.53125,2.4375 -2.75,2.75 -0.96875,1.65625 -1.78125,2.4375 -1.5625,2.15625 -1.3125,1.375 -1.1875,2.09375 -0.5,1.5 -0.65625,1.6875 -0.75,1.21875 -0.375,0.9375 -0.65625,-0.125 -1.125,-0.375 -1.15625,-0.28125 -3.34375,-0.25 h -4.28125 l -5.625,0.21875 -0.875,-1 -2.375,-0.21875 c 0,0 -5.375,0.0937 -5.53125,0.0937 -0.15625,0 -7.96875,-0.0937 -7.96875,-0.0937 l -0.5625,-0.375 -1.21875,-0.75 -7,0.1875 -6.6875,-0.0312 -1.3125,-0.5 -3.6875,-0.59375 -5.46875,-0.0625 -5.65625,0.0625 -2.5,0.0937 -1.53125,-0.84375 -1.65625,-0.1875 -2.5,0.0625 -1.71875,-0.875 -3.53125,-1.3125 -4.3125,-2.53125 -3.0625,-2.625 -1.21875,-1.625 -0.9375,-3.40625 0.0937,-2.78125 -1.6875,-3.21875 -1.9375,-3.90625 -1.4375,-2.28125 -1.5625,-2.03125 -1.59375,-2.15625 -0.75,-0.90625 z"
       id="path27" />
    <path
       style="opacity:0.753582;fill:rgba(var(--light));fill-opacity:1;stroke:rgba(var(--main),0.4);stroke-width:3.5;stroke-linecap:round;stroke-linejoin:round;stroke-miterlimit:3.4;stroke-dasharray:none;stroke-opacity:1;paint-order:markers fill stroke"
       d="m 285.40597,83.792153 2.60746,-1.811961 2.38649,-2.209708 0.7071,-2.695845 0.88389,-1.370019 -0.30936,-1.458408 -1.10486,-0.132583 -1.06066,0.972272 -1.54679,1.016466 -1.01647,1.988738 -1.19324,1.767767 -0.92808,1.502602 -0.53033,1.104854 -0.53033,1.59099 -0.35355,0.486136 0.92807,0.220971 z"
       id="path28" />
    <path
       style="opacity:0.753582;fill:rgba(var(--light));fill-opacity:1;stroke:rgba(var(--main),0.4);stroke-width:3.5;stroke-linecap:round;stroke-linejoin:round;stroke-miterlimit:3.4;stroke-dasharray:none;stroke-opacity:1;paint-order:markers fill stroke"
       d="m 298.22228,79.328542 -0.0884,-3.889087 1.01646,-2.253903 0.39775,-1.679379 2.07713,-2.165514 3.22617,0.132582 c 0,0 0.30936,0.795495 0.57452,0.795495 0.26517,0 4.02167,0.265165 4.02167,0.265165 l 1.01647,1.016466 5.61266,-1.370019 5.3475,0.220971 c 0,0 -0.97228,1.06066 0.97227,0.795495 1.94454,-0.265165 4.37522,0.132582 4.37522,0.132582 l -0.35355,2.077127 -0.61872,2.032932 -0.7513,1.723572 -0.66291,1.723573 -1.76777,3.447146 -1.5468,2.342291 -3.62392,2.032932 -5.03814,1.281631 -1.98873,0.618718 -2.51907,0.220971 -0.7955,-0.751301 -1.19324,-0.353553 -1.23744,0.618718 -0.57452,0.53033 -1.32583,0.353554 -1.14904,0.309359 -1.50261,-0.795495 -0.39774,-0.309359 -0.7955,-1.811961 -1.06066,-1.414214 -0.66291,-1.546796 1.28163,-1.193243 0.97227,-0.397747 0.61872,-0.751301 -0.13258,-1.237437 -1.45841,-0.397748 z"
       id="path29" />
    <path
       style="opacity:0.753582;fill:rgba(var(--light));fill-opacity:1;stroke:rgba(var(--main),0.4);stroke-width:3.5;stroke-linecap:round;stroke-linejoin:round;stroke-miterlimit:3.4;stroke-dasharray:none;stroke-opacity:1;paint-order:markers fill stroke"
       d="m 302.99526,66.644814 v -1.325825 l 2.38648,-0.486136 1.10485,-0.928078 4.02167,0.265165 -1.14904,1.06066 -0.70711,1.193243 v 0.53033 l -5.03814,0.132583 -0.53033,-0.220971 z"
       id="path30" />
    <path
       style="opacity:0.753582;fill:rgba(var(--light));fill-opacity:1;stroke:rgba(var(--main),0.4);stroke-width:3.5;stroke-linecap:round;stroke-linejoin:round;stroke-miterlimit:3.4;stroke-dasharray:none;stroke-opacity:1;paint-order:markers fill stroke"
       d="m 281.3843,80.78695 1.59099,-0.176777 1.50261,-1.944544 0.35355,-1.325825 -0.26517,-1.016466 1.10486,-1.502602 4.02167,-4.331029 1.10485,-2.253903 2.12132,-1.237437 0.97228,-0.662912 0.48613,-1.679379 h 1.81196 l 11.44629,-11.490485 0.39775,-3.579728 -0.22097,-3.358757 -2.2981,-0.441942 -2.91681,-0.662913 -1.37002,0.132583 -1.01647,-1.414214 -2.16551,-3.18198 -2.34229,-6.231379 -1.72358,-4.463611 -0.13258,-2.474874 0.0884,-7.424621 v -0.53033 l -1.5468,-1.988738 -1.32582,-2.12132 -1.45841,-1.635185 -1.01647,-0.795495 -1.10485,1.281631 -2.2539,3.623922 -1.94455,2.519068 -2.2539,4.065864 -1.94454,3.137787 -2.16552,4.640388 -1.06066,2.961009 -0.97227,2.386486 -3.22617,2.342291 -4.46362,0.220971 c 0,0 -1.41421,-0.839689 -1.72357,-0.839689 -0.30936,0 -5.3033,0 -5.3033,0 l -1.45841,0.928077 -1.10485,0.176777 -0.53033,0.972272 -5.17072,-0.309359 -1.67938,-0.972272 -1.54679,-0.972272 -0.48614,0.176777 -0.0442,0.883883 0.0884,3.358757 0.0884,1.06066 h 0.26517 l 0.66291,-0.795495 1.5468,0.08839 1.94454,0.883883 4.24264,1.59099 2.87262,1.37002 2.07713,0.839689 3.09359,3.535534 2.43068,5.833631 2.16551,5.568466 1.37002,4.286835 1.10486,1.414213 c 0,0 1.5026,0.662913 1.67938,0.662913 0.17677,0 1.72357,1.635184 1.72357,1.635184 l 0.61872,1.90035 0.17677,3.137786 0.13259,1.635185 1.94454,1.944543 1.45841,0.662913 z"
       id="path31" />
    <path
       style="opacity:0.753582;fill:rgba(var(--light));fill-opacity:1;stroke:rgba(var(--main),0.4);stroke-width:3.5;stroke-linecap:round;stroke-linejoin:round;stroke-miterlimit:3.4;stroke-dasharray:none;stroke-opacity:1;paint-order:markers fill stroke"
       d="m 300.4099,222.82702 0.97227,-1.65728 0.22097,0.24307 -0.99437,1.74567 -0.24307,-0.0884 z"
       id="path32" />
    <path
       style="opacity:0.753582;fill:rgba(var(--light));fill-opacity:1;stroke:rgba(var(--main),0.4);stroke-width:3.5;stroke-linecap:round;stroke-linejoin:round;stroke-miterlimit:3.4;stroke-dasharray:none;stroke-opacity:1;paint-order:markers fill stroke"
       d="m 317.93289,398.29999 -0.35356,1.70148 0.53033,1.61308 0.72921,-0.0663 -0.0663,-2.09922 -0.59663,-1.30373 z"
       id="path33" />
    <path
       style="opacity:0.753582;fill:rgba(var(--dark));fill-opacity:0.117647;stroke:rgba(var(--main),0.4);stroke-width:3.5;stroke-linecap:round;stroke-linejoin:round;stroke-miterlimit:3.4;stroke-dasharray:none;stroke-opacity:1;paint-order:markers fill stroke"
       d="m 356.02826,191.62594 0.35356,-10.78338 -0.57453,-1.81196 -0.44194,-1.01647 v -0.35355 l 0.61872,-0.44194 1.32582,-1.28163 2.82843,-4.81717 0.48614,-4.11006 1.41421,-2.91681 1.23744,-0.97227 0.48613,-0.83969 4.11006,0.0884 6.23138,-4.06586 4.72878,-3.62392 0.97227,-1.14905 3.0052,-0.0442 3.49134,0.97227 h 6.36396 l 1.32583,-1.28163 0.13258,-2.60746 0.0884,-4.37522 -2.03293,-1.50261 -0.7513,-1.28163 0.0442,-3.44714 4.19845,-3.88909 0.35355,-0.70711 -0.7513,-1.10485 0.30936,-10.12047 -1.37002,-0.88388 -0.0884,-0.83969 7.38043,-8.17592 1.28163,-0.0221 3.49134,-2.89472 3.0052,-3.15988 0.17678,-0.99437 0.0221,-0.92808 0.97227,0.13259 0.44194,0.53033 1.81196,0.86178 0.72921,0.61872 -1.12696,1.65728 -1.03856,0.99437 0.30936,1.23744 0.68501,1.21534 -1.34792,0.81759 0.86178,1.32583 2.05503,1.96664 0.22097,1.23743 0.64082,2.2981 0.41984,4.48571 0.61872,1.25953 0.99437,1.72358 -0.0221,3.55763 -0.13258,3.11569 -0.7292,1.01646 -0.97227,1.45841 1.28163,0.68501 0.48613,0.81759 0.50824,9.72272 0.78869,4.45894 1.3125,5.625 0.625,2.125 -0.75,0.375 -0.1875,1.5625 -0.125,3.625 0.375,0.8125 0.4375,1.75 -0.5625,1.0625 -3.5,2.5625 -3.25,2.4375 -0.9375,0.4375 -2.0625,1.5625 -3.4375,4.0625 c 0,0 -1.1875,0.8125 -1.4375,1.0625 -0.25,0.25 -2.25,1.1875 -2.25,1.1875 L 399.25,183.75 c 0,0 -1.5625,0.9375 -1.875,0.9375 -0.3125,0 -7.25,0.0625 -7.25,0.0625 l -1.375,-1.3125 -6.9375,0.125 -0.5,0.6875 -2.4375,0.5625 -0.4375,0.75 0.8125,1 1.4375,3.9375 -0.0625,1.4375 -0.5625,0.9375 -1.3125,2.0625 -2.3125,2.8125 -4.3125,2.0625 -2.3125,0.625 -2.5,1.0625 -1.75,0.1875 -1.8125,-1.0625 -3.0625,-3.625 -1.375,-2.25 -2.25,-0.1875 -1.6875,-0.9375 0.0625,-1.3125 z"
       id="path34" />
    <path
       style="opacity:0.753582;fill:rgba(var(--dark));fill-opacity:0.117647;stroke:rgba(var(--main),0.4);stroke-width:3.5;stroke-linecap:round;stroke-linejoin:round;stroke-miterlimit:3.4;stroke-dasharray:none;stroke-opacity:1;paint-order:markers fill stroke"
       d="m 17.058951,164.97685 1.90035,-3.22617 2.916815,-2.20971 0.972272,-4.5962 1.502602,-6.67332 1.414213,-5.56846 8.352699,-7.51301 5.966214,-3.13779 5.08233,-1.54679 4.949747,-2.25391 6.363961,-0.30936 3.181981,1.32583 2.65165,-5.43589 0.839689,-9.94368 1.149049,-8.08754 0.574524,-7.822367 1.281631,-6.850097 -1.414213,-4.949747 -2.872622,-5.833631 -4.110058,-2.077126 -1.723573,-2.253903 0.265165,-7.733981 3.933282,-2.032932 3.579728,0.0442 1.723573,0.839689 1.59099,-1.237437 -0.220971,-2.607456 -1.856155,-2.386486 -6.938486,-0.132582 -1.016466,-2.43068 0.441942,-4.463611 1.237437,-0.751301 15.512155,-0.397748 7.51301,-1.06066 3.137786,-3.579728 2.386485,-1.988738 1.016466,0.83969 3.49134,6.584931 0.265165,1.679379 9.545942,7.822369 6.58493,0.220971 2.65165,0.751301 2.2981,-0.220971 4.28683,-6.054602 6.54074,-4.065864 3.22618,-0.751301 7.15945,-7.20365 3.22618,-1.90035 1.63518,-0.53033 -0.13258,-2.740039 -1.81196,-1.502602 -5.43589,0.486136 -1.72357,-0.883883 0.0884,-3.181981 -1.85616,-5.701048 -4.552,-7.51301 -2.51906,-2.077126 -1.85616,-2.65165 2.87262,1.104854 5.65686,1.856155 6.23138,0.83969 3.93328,-0.132583 4.59619,4.02167 2.20971,-0.220971 1.28163,-1.988738 -1.01647,-2.784233 0.7955,-1.237436 3.31456,-1.635185 2.47488,1.193243 6.76171,-1.635185 11.53467,-6.363961 3.22618,-4.154252 -0.97227,-2.0771261 6.23138,-0.044194 1.72357,1.9887378 2.82843,6.0546013 2.03293,5.214913 -0.0442,2.607456 -3.0052,3.181981 -1.37002,4.551999 -0.0442,4.640389 -0.30936,1.59099 0.97227,3.49134 2.60746,8.573669 9.104,6.010408 0.66291,2.253903 0.61872,8.308505 0.30936,3.623922 0.97227,3.977475 0.35355,5.303301 1.19324,2.032932 5.70105,4.949748 0.35356,1.458407 7.24784,4.02167 4.90555,3.226175 7.42202,3.079728 1.10486,1.06066 -3.88779,2.665515 2.16551,1.59099 3.22618,0.883889 -2.16552,5.52427 -3.09359,6.93849 -2.51907,4.86136 -3.84489,8.35269 -2.12132,4.68459 -3.09359,6.31976 -4.552,9.8995 -0.7513,2.74004 0.61872,4.24264 1.94454,2.96101 0.35355,2.78423 -1.72357,3.8007 0.751,5.72748 -1.06066,2.10875 -2.07712,3.62392 h -10.73919 l -5.43588,0.13259 -4.94975,0.7071 -12.22384,0.12993 -6,-0.4375 -5.625,-3.3125 -4.0625,-2.75 -10.75,-0.1875 -3.375,2.5625 -3,5.4375 -2.0625,2.4375 -4.875,2 -6.3125,3.8125 -5.625,1.375 -0.9375,0.9375 -2.4375,-2.1875 -3.1875,-1.625 -4.875,4.5625 -2.1875,2.4375 -2,-0.0625 -9.4375,-2 -5.0625,-1.375 -7.875,-3.3125 -18.25,-8.4375 -10,-1.6875 -12.875,-2.3125 -7,-1.6875 -8.5625,-3.6875 -4.3125,-0.75 z"
       id="path35" />
    <path
       style="opacity:0.753582;fill:#18d833;fill-opacity:0.117089;stroke:rgba(var(--main),0.4);stroke-width:3.5;stroke-linecap:round;stroke-linejoin:round;stroke-miterlimit:3.4;stroke-dasharray:none;stroke-opacity:1;paint-order:markers fill stroke"
       d="m 139.4375,43.3125 5.25,1.1875 3.375,2.5 0.9375,6.125 1.8125,9.5625 -0.25,7.9375 v 8.25 l 4.0625,4.0625 6.25,3.6875 1.6875,0.125 0.125,-8.5 3.1875,-2.75 4.8125,-0.0625 1.5625,1.5625 5.0625,-2.4375 0.75,-3.9375 3.4375,-5 12.8125,0.125 -12.85122,-0.121652 -3.53554,5.126524 -0.66291,3.800699 -4.90555,2.43068 -1.67938,-1.546796 -4.77297,0.176776 -3.22618,2.695845 -0.0884,8.352699 -1.67938,0.04419 -6.18719,-3.712311 -4.24264,-4.065864 0.26517,-16.396038 -2.69585,-15.467961 -3.35876,-2.607456 z"
       id="path36" />
    <path
       style="opacity:0.753582;fill:rgba(var(--dark));fill-opacity:0.117089;stroke:rgba(var(--main),0.4);stroke-width:3.5;stroke-linecap:round;stroke-linejoin:round;stroke-miterlimit:3.4;stroke-dasharray:none;stroke-opacity:1;paint-order:markers fill stroke"
       d="m 446.62632,161.26454 -2.03293,-1.23744 -0.30936,-2.34229 0.92808,-1.5026 0.83969,-1.67938 0.7071,-1.32582 2.03293,0.48613 0.92808,0.83969 2.74004,-0.48613 1.90035,-1.10486 3.44715,-3.40295 2.65165,-0.0884 -1.06066,2.20971 -2.07713,3.35876 0.0884,0.83969 2.56326,2.07712 8.52948,0.57453 1.81196,-0.66292 2.87262,-2.56326 1.45841,-0.26516 3.40295,0.83969 2.34229,0.35355 h 7.91076 l 0.97227,2.69584 0.83969,3.71232 0.22097,3.57972 -0.53033,1.32583 -1.67938,-1.63519 -5.61266,-0.0884 -1.14905,0.57452 -0.88388,2.38649 -3.27037,0.17677 -2.20971,0.97227 -4.02167,1.28163 -2.38649,0.88389 -2.2097,1.14905 -1.72358,1.06066 -1.45841,-0.13259 -1.10485,-2.07712 0.17678,-4.28684 1.67938,-0.39774 0.48613,-3.13779 -1.45841,-1.37002 -4.24264,-0.30936 -1.32582,1.5468 -1.41422,0.92807 -2.43067,1.591 -3.22618,0.83968 -1.72357,0.97228 -2.12132,-0.88389 -1.41422,-2.12132 0.17678,-0.88388 0.83969,-0.66291 0.57452,-1.5468 0.0884,-0.83969 z"
       id="path37" />
    <path
       style="opacity:0.753582;fill:rgba(var(--dark));fill-opacity:0.117647;stroke:rgba(var(--main),0.4);stroke-width:3.5;stroke-linecap:round;stroke-linejoin:round;stroke-miterlimit:3.4;stroke-dasharray:none;stroke-opacity:1;paint-order:markers fill stroke"
       d="m 221.75,98.09375 1.96875,-1.375 1.625,1.0625 -0.96875,1.4375 -2.34375,0.0625 z"
       id="path38" />
    <circle
       style="display:inline;opacity:0.504298;fill:rgba(var(--accent),0.5);fill-opacity:1;stroke:rgba(var(--accent));stroke-width:3.89315;stroke-linecap:round;stroke-linejoin:round;stroke-miterlimit:3.4;stroke-dasharray:none;stroke-opacity:1;paint-order:markers fill stroke"
       id="path39"
       cx="320.27731"
       cy="335.4801"
       r="28.583759" />
    <circle
       style="display:inline;opacity:0.504298;fill:rgba(var(--accent),0.5);fill-opacity:1;stroke:rgba(var(--accent));stroke-width:1.7341;stroke-linecap:round;stroke-linejoin:round;stroke-miterlimit:3.4;stroke-dasharray:none;stroke-opacity:1;paint-order:markers fill stroke"
       id="path39-2"
       cx="397.87106"
       cy="334.39926"
       r="12.731932" />
    <circle
       style="display:inline;opacity:0.504298;fill:rgba(var(--accent),0.5);fill-opacity:1;stroke:rgba(var(--accent));stroke-width:1.02401;stroke-linecap:round;stroke-linejoin:round;stroke-miterlimit:3.4;stroke-dasharray:none;stroke-opacity:1;paint-order:markers fill stroke"
       id="path39-28"
       cx="416.03033"
       cy="306.28033"
       r="7.5183296" />
    <circle
       style="display:inline;opacity:0.504298;fill:rgba(var(--accent),0.5);fill-opacity:1;stroke:rgba(var(--accent));stroke-width:1.64178;stroke-linecap:round;stroke-linejoin:round;stroke-miterlimit:3.4;stroke-dasharray:none;stroke-opacity:1;paint-order:markers fill stroke"
       id="path39-3"
       cx="368.875"
       cy="280.375"
       r="12.054111" />
    <circle
       style="display:inline;opacity:0.504298;fill:rgba(var(--accent),0.5);fill-opacity:1;stroke:rgba(var(--main));stroke-width:0.92837;stroke-linecap:round;stroke-linejoin:round;stroke-miterlimit:3.4;stroke-dasharray:none;stroke-opacity:1;paint-order:markers fill stroke"
       id="path39-7"
       cx="245.53033"
       cy="304.03033"
       r="6.8161497" />
    <circle
       style="display:inline;opacity:0.504298;fill:rgba(var(--accent),0.5);fill-opacity:1;stroke:rgba(var(--accent));stroke-width:1.5819;stroke-linecap:round;stroke-linejoin:round;stroke-miterlimit:3.4;stroke-dasharray:none;stroke-opacity:1;paint-order:markers fill stroke"
       id="path39-6"
       cx="303.40533"
       cy="270.40533"
       r="11.614386" />
    <circle
       style="display:inline;opacity:0.504298;fill:rgba(var(--accent),0.5);fill-opacity:1;stroke:rgba(var(--accent));stroke-width:1.13559;stroke-linecap:round;stroke-linejoin:round;stroke-miterlimit:3.4;stroke-dasharray:none;stroke-opacity:1;paint-order:markers fill stroke"
       id="path39-8"
       cx="332.65533"
       cy="260.15533"
       r="8.3375416" />
    <circle
       style="display:inline;opacity:0.504298;fill:rgba(var(--accent),0.5);fill-opacity:1;stroke:rgba(var(--accent));stroke-width:0.928369;stroke-linecap:round;stroke-linejoin:round;stroke-miterlimit:3.4;stroke-dasharray:none;stroke-opacity:1;paint-order:markers fill stroke"
       id="path39-70"
       cx="242.53033"
       cy="231.03033"
       r="6.8161497" />
    <circle
       style="display:inline;opacity:0.504298;fill:rgba(var(--accent),0.5);fill-opacity:1;stroke:rgba(var(--accent));stroke-width:0.960249;stroke-linecap:round;stroke-linejoin:round;stroke-miterlimit:3.4;stroke-dasharray:none;stroke-opacity:1;paint-order:markers fill stroke"
       id="path39-0"
       cx="144.53032"
       cy="200.53033"
       r="7.05021" />
    <circle
       style="display:inline;opacity:0.504298;fill:rgba(var(--accent),0.5);fill-opacity:1;stroke:rgba(var(--accent));stroke-width:0.960252;stroke-linecap:round;stroke-linejoin:round;stroke-miterlimit:3.4;stroke-dasharray:none;stroke-opacity:1;paint-order:markers fill stroke"
       id="path39-61"
       cx="324.53033"
       cy="197.28033"
       r="7.05021" />
    <circle
       style="display:inline;opacity:0.504298;fill:rgba(var(--accent),0.5);fill-opacity:1;stroke:rgba(var(--accent));stroke-width:1.67753;stroke-linecap:round;stroke-linejoin:round;stroke-miterlimit:3.4;stroke-dasharray:none;stroke-opacity:1;paint-order:markers fill stroke"
       id="path39-81"
       cx="280.15533"
       cy="366.15533"
       r="12.316567" />
    <circle
       style="display:inline;opacity:0.504298;fill:rgba(var(--accent),0.5);fill-opacity:1;stroke:rgba(var(--accent));stroke-width:1.32686;stroke-linecap:round;stroke-linejoin:round;stroke-miterlimit:3.4;stroke-dasharray:none;stroke-opacity:1;paint-order:markers fill stroke"
       id="path39-39"
       cx="304.40533"
       cy="401.40533"
       r="9.7419033" />
    <circle
       style="display:inline;opacity:0.504298;fill:rgba(var(--accent),0.5);fill-opacity:1;stroke:rgba(var(--accent));stroke-width:1.96445;stroke-linecap:round;stroke-linejoin:round;stroke-miterlimit:3.4;stroke-dasharray:none;stroke-opacity:1;paint-order:markers fill stroke"
       id="path39-610"
       cx="263.65533"
       cy="428.40533"
       r="14.42311" />
    <circle
       style="display:inline;opacity:0.504298;fill:rgba(var(--accent),0.5);fill-opacity:1;stroke:rgba(var(--accent));stroke-width:1.02401;stroke-linecap:round;stroke-linejoin:round;stroke-miterlimit:3.4;stroke-dasharray:none;stroke-opacity:1;paint-order:markers fill stroke"
       id="path39-87"
       cx="405.03033"
       cy="219.28033"
       r="7.5183306" />
    <circle
       style="display:inline;opacity:0.504298;fill:rgba(var(--accent),0.5);fill-opacity:1;stroke:rgba(var(--accent));stroke-width:0.976189;stroke-linecap:round;stroke-linejoin:round;stroke-miterlimit:3.4;stroke-dasharray:none;stroke-opacity:1;paint-order:markers fill stroke"
       id="path39-812"
       cx="457.40533"
       cy="202.65533"
       r="7.1672401" />
    <circle
       style="display:inline;opacity:0.504298;fill:rgba(var(--accent),0.5);fill-opacity:1;stroke:rgba(var(--accent));stroke-width:1.00807;stroke-linecap:round;stroke-linejoin:round;stroke-miterlimit:3.4;stroke-dasharray:none;stroke-opacity:1;paint-order:markers fill stroke"
       id="path39-64"
       cx="468.65533"
       cy="194.15533"
       r="7.4013004" />
    <circle
       style="display:inline;opacity:0.504298;fill:rgba(var(--accent),0.5);fill-opacity:1;stroke:rgba(var(--accent));stroke-width:0.99213;stroke-linecap:round;stroke-linejoin:round;stroke-miterlimit:3.4;stroke-dasharray:none;stroke-opacity:1;paint-order:markers fill stroke"
       id="path39-72"
       cx="478.78033"
       cy="145.78033"
       r="7.2842703" />
    <circle
       style="display:inline;opacity:0.504298;fill:rgba(var(--accent),0.5);fill-opacity:1;stroke:rgba(var(--accent));stroke-width:1.08777;stroke-linecap:round;stroke-linejoin:round;stroke-miterlimit:3.4;stroke-dasharray:none;stroke-opacity:1;paint-order:markers fill stroke"
       id="path39-83"
       cx="428.53033"
       cy="170.28033"
       r="7.9864511" />
    <circle
       style="display:inline;opacity:0.504298;fill:rgba(var(--accent),0.5);fill-opacity:1;stroke:rgba(var(--accent));stroke-width:1.13559;stroke-linecap:round;stroke-linejoin:round;stroke-miterlimit:3.4;stroke-dasharray:none;stroke-opacity:1;paint-order:markers fill stroke"
       id="path39-06"
       cx="438.40533"
       cy="133.15532"
       r="8.3375416" />
    <circle
       style="display:inline;opacity:0.504298;fill:rgba(var(--accent),0.5);fill-opacity:1;stroke:rgba(var(--accent));stroke-width:0.976188;stroke-linecap:round;stroke-linejoin:round;stroke-miterlimit:3.4;stroke-dasharray:none;stroke-opacity:1;paint-order:markers fill stroke"
       id="path39-9"
       cx="362.65533"
       cy="133.40533"
       r="7.1672401" />
    <circle
       style="display:inline;opacity:0.504298;fill:rgba(var(--accent),0.5);fill-opacity:1;stroke:rgba(var(--accent));stroke-width:0.880552;stroke-linecap:round;stroke-linejoin:round;stroke-miterlimit:3.4;stroke-dasharray:none;stroke-opacity:1;paint-order:markers fill stroke"
       id="path39-68"
       cx="262.65533"
       cy="136.90532"
       r="6.4650593" />
    <circle
       style="display:inline;opacity:0.504298;fill:rgba(var(--accent),0.5);fill-opacity:1;stroke:rgba(var(--accent));stroke-width:1.00807;stroke-linecap:round;stroke-linejoin:round;stroke-miterlimit:3.4;stroke-dasharray:none;stroke-opacity:1;paint-order:markers fill stroke"
       id="path39-640"
       cx="284.40533"
       cy="51.155327"
       r="7.4013004" />
    <circle
       style="display:inline;opacity:0.504298;fill:rgba(var(--accent),0.5);fill-opacity:1;stroke:rgba(var(--accent));stroke-width:0.896493;stroke-linecap:round;stroke-linejoin:round;stroke-miterlimit:3.4;stroke-dasharray:none;stroke-opacity:1;paint-order:markers fill stroke"
       id="path39-724"
       cx="71.030334"
       cy="195.03033"
       r="6.5820894" />
    <text
       xml:space="preserve"
       style="font-size:10.0372px;display:inline;opacity:1;fill:rgba(var(--main));fill-opacity:1;stroke:rgba(var(--main));stroke-width:0.418215;stroke-linecap:round;stroke-linejoin:round;stroke-miterlimit:3.4;stroke-dasharray:none;stroke-opacity:1;paint-order:markers fill stroke"
       x="203.65079"
       y="248.00615"
       id="text39"><tspan
         id="tspan39"
         x="203.65079"
         y="248.00615"
         style="stroke-width:0.418215">Mato Grosso</tspan></text>
    <text
       xml:space="preserve"
       style="font-size:9.79709px;display:inline;opacity:1;fill:rgba(var(--main));fill-opacity:1;stroke:rgba(var(--main));stroke-width:0.408212;stroke-linecap:round;stroke-linejoin:round;stroke-miterlimit:3.4;stroke-dasharray:none;stroke-opacity:1;paint-order:markers fill stroke"
       x="387.91922"
       y="238.03041"
       id="text40"><tspan
         id="tspan40"
         x="387.91922"
         y="238.03041"
         style="stroke-width:0.408212">Bahia</tspan></text>
    <text
       xml:space="preserve"
       style="font-size:10.0372px;display:inline;opacity:1;fill:rgba(var(--main));fill-opacity:1;stroke:rgba(var(--main));stroke-width:0.418214;stroke-linecap:round;stroke-linejoin:round;stroke-miterlimit:3.4;stroke-dasharray:none;stroke-opacity:1;paint-order:markers fill stroke"
       x="336.40079"
       y="305.50613"
       id="text41"><tspan
         id="tspan41"
         x="336.40079"
         y="305.50613"
         style="stroke-width:0.418214">Minas Gerais</tspan></text>
    <text
       xml:space="preserve"
       style="font-size:9.79709px;display:inline;opacity:1;fill:rgba(var(--main));fill-opacity:1;stroke:rgba(var(--main));stroke-width:0.408212;stroke-linecap:round;stroke-linejoin:round;stroke-miterlimit:3.4;stroke-dasharray:none;stroke-opacity:1;paint-order:markers fill stroke"
       x="220.16924"
       y="319.2804"
       id="text42"><tspan
         id="tspan42"
         x="220.16924"
         y="319.2804"
         style="stroke-width:0.408212">Mato Grosso </tspan><tspan
         x="220.16924"
         y="331.52676"
         style="stroke-width:0.408212"
         id="tspan43">do Sul</tspan></text>
    <text
       xml:space="preserve"
       style="font-size:9.44141px;display:inline;opacity:1;fill:rgba(var(--main));fill-opacity:1;stroke:rgba(var(--main));stroke-width:0.393392;stroke-linecap:round;stroke-linejoin:round;stroke-miterlimit:3.4;stroke-dasharray:none;stroke-opacity:1;paint-order:markers fill stroke"
       x="303.61411"
       y="335.17407"
       id="text44"><tspan
         id="tspan44"
         x="303.61411"
         y="335.17407"
         style="stroke-width:0.393392">So </tspan><tspan
         x="303.61411"
         y="346.97583"
         style="stroke-width:0.393392"
         id="tspan45">  Paulo</tspan></text>
    <text
       xml:space="preserve"
       style="font-size:9.14116px;display:inline;opacity:1;fill:rgba(var(--main));fill-opacity:1;stroke:rgba(var(--main));stroke-width:0.380882;stroke-linecap:round;stroke-linejoin:round;stroke-miterlimit:3.4;stroke-dasharray:none;stroke-opacity:1;paint-order:markers fill stroke"
       x="272.21964"
       y="373.35089"
       id="text46"><tspan
         id="tspan46"
         x="272.21964"
         y="373.35089"
         style="stroke-width:0.380882">Paran</tspan></text>
    <text
       xml:space="preserve"
       style="font-size:9.44141px;display:inline;opacity:1;fill:rgba(var(--main));fill-opacity:1;stroke:rgba(var(--main));stroke-width:0.393392;stroke-linecap:round;stroke-linejoin:round;stroke-miterlimit:3.4;stroke-dasharray:none;stroke-opacity:1;paint-order:markers fill stroke"
       x="341.94656"
       y="144.42406"
       id="text47"><tspan
         id="tspan47"
         x="341.94656"
         y="144.42406"
         style="stroke-width:0.393392">Maranho</tspan></text>
    <text
       xml:space="preserve"
       style="font-size:9.14116px;display:inline;opacity:1;fill:rgba(var(--main));fill-opacity:1;stroke:rgba(var(--main));stroke-width:0.380882;stroke-linecap:round;stroke-linejoin:round;stroke-miterlimit:3.4;stroke-dasharray:none;stroke-opacity:1;paint-order:markers fill stroke"
       x="253.46964"
       y="156.60088"
       id="text48"><tspan
         id="tspan48"
         x="253.46964"
         y="156.60088"
         style="stroke-width:0.380882">Par</tspan></text>
  </g>
</svg>
