<?xml version="1.0" encoding="UTF-8" standalone="no"?>
<!-- Created with Inkscape (http://www.inkscape.org/) -->

<svg
   version="1.1"
   id="svg1"
   width="225"
   height="227"
   viewBox="0 0 225 227"
   xmlnsXlink="http://www.w3.org/1999/xlink"
   xmlnsSvg="http://www.w3.org/2000/svg"
   sodipodiDocname="icone_download_melhor.svg"
   inkscapeExport-filename="icone_download_melhor.svg"
   inkscapeExport-xdpi="96"
   inkscapeExport-ydpi="96"
   inkscapeVersion="1.3.2 (091e20e, 2023-11-25, custom)"
   xmlnsInkscape="http://www.inkscape.org/namespaces/inkscape"
   xmlnsSodipodi="http://sodipodi.sourceforge.net/DTD/sodipodi-0.dtd"
   sodipodiDocname="icone_download_melhor.svg"
   inkscapeVersion="1.3.2 (091e20e, 2023-11-25, custom)"
   xmlnsInkscape="http://www.inkscape.org/namespaces/inkscape"
   xmlnsSodipodi="http://sodipodi.sourceforge.net/DTD/sodipodi-0.dtd"
   xmlns="http://www.w3.org/2000/svg"
   xmlnsSvg="http://www.w3.org/2000/svg">
  <sodipodiNamedview
     id="namedview1"
     pagecolor="#505050"
     bordercolor="#eeeeee"
     borderopacity="1"
     inkscapeShowpageshadow="0"
     inkscapePageopacity="0"
     inkscapePagecheckerboard="0"
     inkscapeDeskcolor="#505050"
     inkscapeZoom="3.6167401"
     inkscapeCx="104.09927"
     inkscapeCy="133.96041"
     inkscapeWindow-width="1920"
     inkscapeWindow-height="1017"
     inkscapeWindow-x="-8"
     inkscapeWindow-y="-8"
     inkscapeWindow-maximized="1"
     inkscapeCurrent-layer="g1" />
  <sodipodiNamedview
     id="namedview1"
     pagecolor="#505050"
     bordercolor="#eeeeee"
     borderopacity="1"
     inkscapeShowpageshadow="false"
     inkscapePageopacity="0"
     inkscapePagecheckerboard="false"
     inkscapeDeskcolor="#505050"
     inkscapeExport-bgcolor="#00000000"
     inkscapeZoom="3.6167401"
     inkscapeCx="112.39403"
     inkscapeCy="113.77649"
     inkscapeWindow-width="1920"
     inkscapeWindow-height="1017"
     inkscapeWindow-x="-8"
     inkscapeWindow-y="-8"
     inkscapeWindow-maximized="1"
     inkscapeCurrent-layer="svg1"
     borderlayer="true"
     showborder="true"
     inkscapeLockguides="false" />
  <defs
     id="defs1" />
  <g
     id="g1">
    <path
       style="fill:#ffffff;fill-opacity:0.977431;stroke:#ffffff;stroke-width:0.067;stroke-linecap:round;stroke-linejoin:round;stroke-miterlimit:19.4;stroke-opacity:0.951389"
       d="m 41.404689,154.07521 0.20737,34.42327 c 0,0 1.728075,8.7095 13.202496,8.84774 11.474422,0.13825 114.882465,0 114.882465,0 0,0 12.58039,-0.48386 12.64951,-8.64037 0.0691,-8.15652 0,-35.73661 0,-35.73661 0,0 -0.13825,-3.38702 -4.07826,-3.45615 -3.94001,-0.0691 -7.25792,0.0691 -7.25792,0.0691 0,0 -3.45615,-0.34562 -3.52527,3.59439 -0.0691,3.94002 0.0691,26.88886 0.0691,26.88886 0,0 -1.7972,5.59896 -9.53897,5.59896 -7.74178,0 -94.145559,-0.0691 -94.145559,-0.0691 0,0 -7.188794,-1.24421 -7.32704,-7.88002 -0.138246,-6.63581 -0.06912,-23.50183 -0.06912,-23.50183 0,0 0.175348,-3.81783 -3.881472,-3.86671 -4.056821,-0.0489 -7.624868,0.0978 -7.624868,0.0978 0,0 -3.605788,-0.21681 -3.562479,3.63071 z"
       id="path1" />
    <path
       style="fill:#ffffff;fill-opacity:0.977431;stroke:#ffffff;stroke-width:0.067;stroke-linecap:round;stroke-linejoin:round;stroke-miterlimit:19.4;stroke-opacity:0.951389"
       d="m 57.675281,117.11015 49.170619,49.26837 c 0,0 1.29707,1.14112 2.33391,1.17568 1.03685,0.0346 7.05055,0 7.05055,0 0,0 1.62439,-0.27649 2.17737,-1.27877 0.55299,-1.00229 49.07735,-49.07735 49.07735,-49.07735 0,0 1.38246,-2.8686 -0.10369,-4.49299 -1.48614,-1.6244 -6.15194,-6.11739 -6.15194,-6.11739 0,0 -2.62668,-1.62439 -4.80405,0.13824 -2.17738,1.76264 -33.83572,33.83572 -33.83572,33.83572 0,0 -2.00457,1.17509 -2.03913,-0.76035 -0.0346,-1.93544 -0.11674,-108.031028 -0.11674,-108.031028 0,0 0.43989,-3.225906 -2.24836,-3.274783 -2.68826,-0.04888 -11.46174,-0.09775 -11.46174,-0.09775 0,0 -2.68826,-0.391019 -2.2728,3.470293 0.41546,3.861311 0.0631,107.069228 0.0631,107.069228 0,0 0.41474,2.90317 -2.00457,1.52071 -2.41931,-1.38246 -34.112211,-34.00852 -34.112211,-34.00852 0,0 -2.764921,-2.07369 -4.942296,0.10369 -2.177375,2.17736 -6.048264,5.91001 -6.048264,5.91001 0,0 -1.985766,1.96694 0.268612,4.647 z"
       id="path2" />
  </g>
</svg>
