<svg width="26" height="25" viewBox="0 0 26 25"  xmlns="http://www.w3.org/2000/svg">
<g clip-path="url(#clip0_26_486)">
<path d="M20.0681 0.579086H5.97896C3.20039 0.579086 0.947144 2.83233 0.947144 
5.6109V19.7C0.947144 22.4786 3.20039 24.7318 5.97896 24.7318H20.0681C22.8476 
24.7318 25.0999 22.4786 25.0999 19.7V5.6109C25.0999 2.83233 22.8476 0.579086 
20.0681 0.579086ZM8.99805 19.7H5.97896V8.63H8.99805V19.7ZM7.48851 7.35393C6.51636 
7.35393 5.72737 6.5589 5.72737 5.5787C5.72737 4.5985 6.51636 3.80348 7.48851 
3.80348C8.46065 3.80348 9.24964 4.5985 9.24964 5.5787C9.24964 6.5589 8.46166 
7.35393 7.48851 7.35393ZM21.0744 19.7H18.0553V14.0603C18.0553 10.6709 14.0299 
10.9275 14.0299 14.0603V19.7H11.0108V8.63H14.0299V10.4062C15.4348 7.80377 21.0744 
7.61156 21.0744 12.898V19.7Z" />
</g>
<defs>

</defs>
</svg>
