<?xml version="1.0" encoding="UTF-8" standalone="no"?>
<!-- Created with Inkscape (http://www.inkscape.org/) -->

<svg
   version="1.1"
   id="svg1"
   width="107.30816"
   height="113.58052"
   viewBox="0 0 107.30817 113.58051"
   xmlnsXlink="http://www.w3.org/1999/xlink"
   xmlnsSvg="http://www.w3.org/2000/svg"
   xmlns="http://www.w3.org/2000/svg"
   xmlnsSvg="http://www.w3.org/2000/svg">
  <defs
     id="defs1" />
  <g
     id="g1"
     transform="matrix(0.73318505,0,0,0.73318505,-6.2833124,2.5914189)">
    <path
       style="opacity:1;fill-opacity:0.977431;paint-order:normal"
       d="M 50.312031,76.776045 C 49.264534,72.795225 45.42147,52.939995 46.286242,50.96491 l 8.078747,0.686113 c -2.191433,15.071444 9.990347,44.711586 14.170856,78.988597 0,0 -0.459872,4.56617 -3.55117,3.73367 C 62.009927,133.57218 50.312031,76.776045 50.312031,76.776045 Z"
       id="path26" />
    <path
       style="opacity:1;fill-opacity:0.977431;paint-order:normal"
       d="m 46.283925,51.035578 c 0.0021,-0.730869 2.750412,-48.3857454 18.293337,-32.885872 10.83049,10.800491 19.575035,31.38332 20.093442,31.901726 -2.153022,1.789419 -4.602024,0.03391 -6.755046,0.18733 0,0 -15.577746,-29.223227 -18.870602,-27.09106 -3.292857,2.132166 -6.703797,27.588687 -6.07912,28.217758 0.847734,0.853697 -6.708478,0.252386 -6.682011,-0.329882 z"
       id="path27" />
    <path
       style="opacity:1;fill-opacity:0.977431;paint-order:normal"
       d="m 52.875,51.375 37.125,-2 c 0,0 46.66356,-4.376403 33.375,26.25 -13.06976,30.12213 -16.76652,28.46278 -16.76652,28.46278 0,0 -0.85536,0.63276 -4.38973,-1.83778 C 98.793403,99.855669 53.5,60.25 53.5,60.25 47.969314,50.127021 38.525996,47.749472 58.375,56.3125 L 96.875,89.75 80,55.25 86.908447,53.975341 106.375,96.25 117.3125,74.5 c 3.52813,-7.644542 5.94264,-16.008878 -7.97145,-19.039281 C 94.339273,52.193425 82.124991,55.152663 86.756635,54.657777 L 80.013552,55.309008 58.75,56.6875 56.058047,55.878121 c -7.496089,0.137566 -3.898143,-2.880684 -7.401112,-3.741398 z"
       id="path28" />
    <path
       style="opacity:1;fill-opacity:0.977431;paint-order:normal"
       d="m 52.726562,51.296875 0.28125,0.476562 H 52.34375 L 52.3125,51.421875 Z"
       id="path31" />
    <path
       style="opacity:1;fill-opacity:0.977431;paint-order:normal"
       d="m 96.104455,89.00639 0.556713,0.533684 -0.379577,-0.849682"
       id="path40" />
    <path
       style="opacity:1;fill-opacity:0.977431;paint-order:normal"
       d="M 53.497047,60.214562 54.447222,59.9273 53.983183,59.264387 53.055106,59.595843"
       id="path41" />
  </g>
</svg>
